<svg version="1" xmlns="http://www.w3.org/2000/svg" width="1536" height="1536" viewBox="0 0 1152.000000 1152.000000"><path d="M571 1.2c-1.4.5-3.6 1.2-5 1.4-1.4.3-5.4 1.3-9 2.4-3.6 1-14.6 4-24.5 6.5-9.9 2.6-18.2 4.8-18.5 5-.4.2-1.7.6-3.1.9-1.3.3-5.1 1.2-8.4 2.1-10.2 2.9-12.9 3.6-15 4-1.1.2-6.3 1.6-11.5 3-9 2.5-15.7 4.3-19 5-.8.2-1.5.4-1.5.5 0 .1-.7.3-1.5.5-.9.1-7.6 1.9-14.9 3.9-7.4 2-14.1 3.8-15 4-.9.2-2.3.6-3.1.9-1.2.5-20.5 5.6-27 7.1-.8.2-3.5.9-6 1.6-2.5.7-5.2 1.4-6 1.5-.8.2-1.5.4-1.5.5 0 .1-.7.3-1.5.5s-5.8 1.5-11 2.9-12.2 3.2-15.5 4.1c-3.3.9-11.1 2.9-17.4 4.6-6.3 1.7-12.1 3.2-13 3.5-.9.2-5.9 1.5-11.1 2.9-19.3 5.2-47.5 12.7-49 13-.8.2-1.5.4-1.5.5 0 .1-.7.3-1.5.5-.8.1-13.6 3.5-28.5 7.5-14.8 4-27.7 7.3-28.5 7.5-.8.2-4 1-7.1 1.9-3.1.9-6.5 1.9-7.5 2.1-1.1.2-3.5.9-5.4 1.4-3.6 1-14.3 3.8-17 4.5-4.3 1.1-11.1 2.9-15.8 4.3l-5.3 1.5.4 316.6c.2 174.2.6 318.7.9 321.2.5 4.2 1.6 13 2.3 19 1.6 12.5 5.5 33.6 7.6 41.5.6 2.2 1.3 4.7 1.4 5.5.2.8.4 1.6.5 1.7.2.2.3 1.1.5 2 .1 1 .4 2.5.8 3.3.7 1.9 4.9 15.2 5.1 16.5.4 1.8 1.7 6 2.7 8.2.5 1.3 1.3 3.3 1.8 4.5.4 1.3 2.3 6.1 4.1 10.8 3.6 9.2 18.5 40.3 22.2 46 3.5 5.5 5.7 9.2 7.5 12.8.9 1.7 2 3.2 2.5 3.2.4 0 .8.5.8 1.1 0 .9 5.4 9.3 7 10.9.3.3 2.1 2.7 4 5.5 3.6 5.2 5.6 7.8 7.8 10 .6.8 1.2 1.7 1.2 2 0 .9 14.7 18.2 22 25.9 14.7 15.5 31.7 31.6 43 40.6 1.7 1.4 4.2 3.4 5.4 4.5 1.3 1.1 3.6 2.9 5.1 4 1.6 1.1 3.3 2.5 3.9 3 .6.6 2.7 2.2 4.6 3.5 1.9 1.3 3.7 2.7 4 3 .3.3 1.3.9 2.2 1.5.9.5 5.8 3.9 11 7.5 10 7 15.7 10.7 25.7 16.7 3.5 2.1 7.8 4.6 9.5 5.7 11.1 6.7 32.8 18 47.6 24.9 4.1 1.9 9.3 4.3 11.5 5.3 2.2 1 4.2 1.9 4.5 2 .3 0 2.3.8 4.5 1.9 2.2 1 4.5 1.9 5 2.1.6.1 4.4 1.6 8.5 3.4 14.9 6.2 53.2 19.5 65 22.5.8.2 3 .8 4.8 1.4 1.7.5 3.2.7 3.2.4 0-.3.6-.1 1.3.5.6.5 2.6 1.2 4.2 1.5 1.7.3 4.6 1.1 6.5 1.7 1.9.6 5.3 1.5 7.5 2s5.8 1.3 8 1.9c2.2.5 5.1 1.2 6.5 1.5 1.4.3 3.6.8 5 1.1 3.2.7 12.6 2.5 16.3 3.1 1.6.2 3.2.6 3.7.9.5.3 1 .1 1.2-.5.2-.6 1.2-1.2 2.3-1.4 1.1-.2 3.8-.7 6-1.1 2.2-.4 4.9-.9 6-1 1.2-.2 5-1 8.5-2 3.6-.9 7.6-1.9 9-2.1 3.1-.6 23.9-6.1 30-7.9 2.5-.8 8.6-2.6 13.5-4.1 5-1.5 9.5-2.9 10-3 2-.5 18.2-6.3 30-10.7 11.6-4.3 14-5.3 21.5-8.5 1.9-.8 5.1-2.1 7-2.9 9-3.7 23.5-10.5 37.5-17.5 15-7.6 30.7-16.5 45.3-25.7 6.2-3.9 11.7-7.1 12.2-7.1.4 0 1-.4 1.2-.8.2-.4 3.2-2.8 6.8-5.2 3.6-2.5 6.9-4.9 7.5-5.3.5-.4 4.8-3.5 9.5-6.9 4.7-3.4 9.4-6.9 10.5-7.9 1.1-1 5.4-4.5 9.5-7.9 4.1-3.4 7.7-6.6 7.8-7.1.2-.5.8-.9 1.3-.9s2.6-1.7 4.7-3.8c2.2-2 7-6.7 10.8-10.3 8.1-7.7 26.9-27.7 29.2-31 .9-1.3 2.3-3.1 3.2-3.9 2.4-2.2 18.1-23.1 19.3-25.8.6-1.2 1.4-2.2 1.9-2.2s1.3-1 1.9-2.3c.5-1.2 2.8-4.9 5-8.2 2.2-3.3 4.2-6.8 4.5-7.7.4-1 1-1.8 1.5-1.8s.9-.4.9-1c0-.5 1.3-3.2 2.9-5.9 2.9-4.9 13.5-25.1 13.6-26.1.1-.3 1.4-3.2 2.9-6.5 8.5-18.4 20.6-54.9 23.2-70 .3-1.7 1-4.7 1.5-6.8.6-2.1 1.2-5 1.4-6.5.2-1.5.6-3.8.9-5.1.3-1.4.8-4.7 1.1-7.4.3-2.8.7-5.3.9-5.6.2-.3.6-3.8 1-7.6.4-3.9.9-8.2 1.1-9.6.3-1.4.8-6.8 1.1-12 1-15.1 1.1-631.9.1-632.6-1.1-.7-12.4-3.8-20.4-5.7-1-.2-5.4-1.4-9.8-2.6-4.4-1.2-10.9-2.9-14.5-3.7-3.6-.8-7.2-1.8-8-2.1-2.3-.8-18.2-5.1-20.5-5.6-1.1-.2-6.5-1.6-12-3.1s-10.7-2.9-11.5-3c-.8-.2-1.5-.4-1.5-.5 0-.1-.9-.3-2-.5-3.3-.6-10.8-2.6-13.5-3.6-1.4-.5-3.4-1.1-4.5-1.3-3.6-.7-30-7.6-31.5-8.3-.8-.3-1.8-.5-2.2-.5-.4.1-2.7-.4-5-1.2-5.6-1.8-15.1-4.1-16-3.8-.5.1-.8-.2-.8-.6 0-.4-.9-.8-1.9-.9-1-.1-10.6-2.5-21.2-5.3-10.7-2.9-19.8-5.3-20.4-5.5-2.7-.6-7.2-1.7-8.5-2.1-.8-.3-1.6-.5-1.7-.5-.2-.1-2.6-.7-5.5-1.5s-6-1.6-6.8-1.8c-.8-.2-5.9-1.6-11.3-3-5.4-1.5-10.6-2.8-11.5-3-.9-.1-2.4-.5-3.2-.9-.8-.3-3.7-1-6.5-1.7-2.7-.7-5.7-1.5-6.5-1.8-2.1-.7-1.8-.7-8.5-2.1-3.3-.7-6.4-1.6-7-1.9-.5-.4-1.7-.7-2.5-.9-2-.2-18.1-4.3-20-5.1-.8-.3-1.9-.6-2.5-.7-.5-.1-1.2-.3-1.5-.4-.3-.2-1.2-.4-2-.6-.8-.1-3.5-.8-6-1.5s-5.2-1.3-6-1.5c-.8-.2-6.5-1.7-12.6-3.4-6.1-1.6-12.3-3.2-13.7-3.5-1.5-.2-3-.7-3.5-1-.5-.3-1.9-.7-3.3-1-1.3-.3-5.1-1.3-8.4-2.1-3.3-.9-6.7-1.8-7.5-2-.8-.2-1.5-.4-1.5-.5 0-.1-.9-.3-2-.5-1.2-.2-9-2.3-17.5-4.6-8.5-2.2-16-4.2-16.7-4.3-.7-.1-1.5-.5-1.9-.8-.3-.4-1.2-.4-1.9-.2-.7.3-1.6.1-2-.5-.8-1.3-2.2-1.3-5.5.1zm8.9 71.4c2 .3 4.3.8 5.1 1.1.8.3 2 .7 2.5.9 5.1 1.4 17.3 4.6 18.5 4.9.8.1 4.2 1 7.5 1.9 3.3.9 6.7 1.8 7.5 2 .8.2 5.1 1.4 9.5 2.6 4.4 1.2 9.1 2.4 10.5 2.7 2.3.4 2.9.6 5.2 1.3 5.3 1.5 18.8 5.2 20.3 5.5 6.9 1.4 16.1 4.1 16.7 5 .4.5.8.7.8.3 0-.4 4 .4 9 1.8 4.9 1.3 10.1 2.6 11.5 2.8 1.3.3 2.8.7 3.3 1 .5.3 1.9.7 3.3 1 2.4.6 15.4 3.9 21.9 5.7 1.9.5 4.2 1.1 5 1.3.8.2 4.2 1.1 7.5 2 3.3.9 7 1.9 8.3 2.2 1.2.2 6.4 1.6 11.5 3 17.1 4.7 19.5 5.3 21.9 5.8 1.2.3 5 1.3 8.3 2.2 3.3.9 6.5 1.7 7 1.9.6.1 1.7.4 2.5.7 2.1.7 14.1 3.8 16.5 4.3 1.1.2 4.5 1.1 7.5 2 3 .9 6.2 1.7 7 1.9.8.2 3.5.9 6 1.6 2.5.7 5.2 1.4 6 1.6.8.2 5.1 1.3 9.5 2.4 4.4 1.2 8.7 2.3 9.5 2.5.8.2 3 .8 4.8 1.4 1.7.5 3.2.7 3.2.5 0-.3.6-.2 1.3.3.6.4 1.7.8 2.2.9 1 .2 8.8 2.3 24.5 6.5 10.1 2.8 22.1 5.9 24.4 6.4 4 .9 8.6 2.7 8.7 3.3.5 5.1.2 37.2-.4 37.2-.5 0-.5.4-.2 1 .6.9 1 16.5.5 18.5-.1.5-.1 1.2 0 1.5.6 1.5.4 14.3-.3 14.7-.4.2-.4.9 0 1.5.9 1.6 1 13.9 0 14.5-.4.2-.4.9 0 1.5.9 1.6 1 13.9 0 14.5-.4.2-.4.9-.1 1.5 1 1.6 1.1 58.8.1 58.8-.5 0-.5.4-.2 1 .6.9 1 16.5.5 18.5-.1.5-.1 1.2 0 1.5.6 1.5.4 14.3-.3 14.7-.4.2-.4.9 0 1.5.9 1.6 1 13.9 0 14.5-.4.2-.4.9 0 1.5.9 1.6 1 13.9 0 14.5-.4.2-.4.9-.1 1.5 1 1.6 1.1 58.8.1 58.8-.5 0-.5.4-.2 1 .6.9 1 16.5.5 18.5-.1.5-.1 1.2 0 1.5.6 1.5.4 14.3-.3 14.7-.4.2-.4.9 0 1.5.9 1.6 1 13.9 0 14.5-.4.2-.4.9 0 1.5.9 1.6 1 13.9 0 14.5-.4.2-.4.9-.1 1.5 1 1.6 1.1 58.8.1 58.8-.5 0-.5.4-.2 1 .6.9 1 16.5.5 18.5-.1.5-.1 1.2 0 1.5.6 1.5.4 14.3-.3 14.7-.4.2-.4.9 0 1.5.9 1.6 1 13.9 0 14.5-.4.2-.4.9 0 1.5.9 1.6 1 13.9 0 14.5-.4.2-.4.9-.1 1.5.8 1.3 1.2 58.8.4 58.8-.5 0-.5 6.3 0 8.5.1.5.2 1.2.1 1.5-.1.3-.4 4.8-.6 10-.4 9.4-1 15.2-1.9 22-.3 1.9-.8 5.5-1.2 8-.9 6.8-4.2 24.1-5.3 27.7-.5 1.8-.8 3.3-.6 3.3.3 0 0 1.2-.6 2.7-.6 1.6-1.2 3.7-1.5 4.7-1 5.2-9.5 29.5-13 37.1-1.5 3.3-2.9 6.9-3.1 7.9-.2 1.1-.7 2.4-1.2 3-.5.6-3.3 5.8-6.3 11.6-7.5 14.4-18.3 32-20 32.8-.5.2-.8.8-.8 1.3s-.7 1.7-1.4 2.6c-.8 1-3.3 4.3-5.5 7.3s-4.6 6.1-5.3 6.9c-.7.8-2.2 2.7-3.3 4.1-8.4 11.2-32 35-47 47.5-2.7 2.2-5.3 4.5-5.9 5-.6.6-4 3.3-7.6 6-3.5 2.8-6.9 5.4-7.5 5.8-.5.4-4.8 3.5-9.5 6.7-4.7 3.3-8.9 6.3-9.5 6.7-1.5 1.2-6.7 4.6-9 5.9-1.1.6-6.8 4-12.6 7.6-5.8 3.6-11.9 7.2-13.5 8-3.1 1.6-15.5 8.3-18.9 10.1-1.1.6-2.2 1.2-2.5 1.3-1.4.3-9.7 4.4-10.4 5.1-.4.4-1.1.8-1.4.8-.8 0-11.1 4.7-17.9 8.1-2.3 1.1-3.9 1.6-3.6 1 .4-.6-.2-.4-1.3.5-1 .9-2.8 1.9-3.9 2.2-1.1.3-4.2 1.4-7 2.5-22.9 9-62 22.4-62 21.3 0-.1-1.3.3-3 .9-1.6.7-3.7 1.3-4.5 1.5-.8.2-3.5.8-6 1.5s-5.3 1.4-6.2 1.6c-1 .2-2.7.6-3.8.9-1.1.3-2.9.7-4 1-11.4 2.8-12.2 2.8-23 .1-.8-.3-3.6-.9-6.2-1.5-6-1.4-32.8-8.9-34.8-9.8-.8-.3-1.7-.7-2-.7-1.6-.4-15.8-4.9-17.5-5.6-1.1-.5-5.1-2-9-3.4-15.9-5.7-29.3-11.1-41.3-16.7-3.4-1.6-6.9-2.9-7.6-2.9-.8 0-1.6-.5-1.8-1.1-.2-.5-1-1.1-1.8-1.3-2.1-.4-17-7.6-20.2-9.9-1.6-1-2.8-1.5-2.8-1.1 0 .3-.6.2-1.3-.4-.6-.5-4.8-3-9.2-5.4-4.4-2.5-10.2-5.7-13-7.3-5.1-2.8-36.6-23.4-37.5-24.4-.3-.3-3.9-3.1-8-6.3-16.7-12.5-25.1-19.9-42-36.9-14.2-14.2-14.3-14.3-24.2-26.6-3.4-4.3-6.8-8.4-7.5-9.1-.7-.7-1.3-1.6-1.3-2 0-.4-1.1-2-2.5-3.6s-2.5-3.3-2.5-3.7c0-.4-.6-1.4-1.3-2.1-1.9-2-8.5-12.2-8.5-13.2 0-.5-.5-1.2-1-1.5-1.1-.6-4.1-5.9-8.8-15.1-1.6-3-3.2-5.7-3.6-5.8-.4-.2-.8-1.1-.8-2.1 0-.9-.4-2.1-.9-2.7-.6-.5-2.4-4.3-4.1-8.4-1.8-4.1-3.8-8.9-4.6-10.5-1.6-3.5-8.2-22.1-8.9-25-.3-1.1-1.4-4.9-2.4-8.5-1.1-3.6-2.3-8.2-2.6-10.4-.3-2.1-.8-4.2-1.1-4.7-.6-1-1.2-3.8-2-9.2-.7-4.7-1.2-7.2-1.4-7.2-.1 0-.3-1.4-.5-3-.1-1.7-.5-4.8-.8-7-.4-2.2-.8-6.3-1.1-9-.3-2.8-.9-7.5-1.2-10.5-.8-6.4-1.2-575.8-.4-576.8.3-.4 1.2-.9 2-1.1.8-.2 6.5-1.7 12.5-3.3 6.1-1.6 12.1-3.1 13.5-3.4 1.4-.2 3.6-.9 5-1.3 1.4-.5 9.7-2.8 18.5-5.1 8.8-2.2 16.7-4.4 17.5-4.7.8-.3 2.2-.7 3-.8 1.8-.4 2.9-.6 15.5-3.9 5.5-1.4 13-3.4 16.8-4.5 3.7-1.1 6.7-1.7 6.7-1.4 0 .3.7 0 1.5-.7s1.5-1 1.5-.7c0 .3 2.1-.2 4.8-1 2.6-.8 5.6-1.7 6.7-1.9 2.7-.5 4.7-1 6.5-1.7.8-.3 12.1-3.3 25-6.7 23.1-6 25.2-6.6 28.8-7.4.9-.2 4.4-1.1 7.7-2 3.3-.9 6.7-1.9 7.5-2.1.8-.2 4-1 7-1.9 3-.8 10.7-2.8 17-4.5 6.3-1.6 14.2-3.7 17.5-4.6 5.6-1.6 6.9-1.9 11.3-2.9.9-.2 5.2-1.4 9.4-2.6 4.3-1.1 8.5-2.3 9.5-2.5 3.2-.7 47.6-12.5 52.6-14 2.6-.8 4.7-1.1 4.7-.8 0 .3.6 0 1.4-.6.8-.6 1.8-1.1 2.2-1 .5.1 1.1 0 1.4-.1.6-.2 2.5-.7 5.8-1.4 1.2-.3 2.6-.7 3-1 .5-.3 2-.7 3.5-1 5.3-1.1 7.2-1.6 10.2-2.5 1.7-.5 3.6-.7 4.4-.5.8.3 3 .7 5 1z"/><path d="M569.5 114.2c-1.6.5-3.7 1.2-4.5 1.5-.8.3-2.2.7-3 .8-.8.2-2.5.6-3.7.9-3.1.8-5.9 1.5-8 2-1 .2-6.3 1.6-11.8 3.1-10.9 2.9-12.6 3.3-15.3 3.9-.9.2-3.7.9-6.2 1.6-2.5.7-5.2 1.4-6 1.6-7.8 2-17.1 4.4-19.8 5.3-1.8.5-3.5 1-3.7 1-.3.1-.6.1-.7.2-.2 0-1 .2-1.8.4-3.2.7-36.6 9.4-38 9.9-.8.3-2.6.8-4 1-1.4.3-7 1.7-12.5 3.1-5.5 1.5-10.7 2.8-11.5 3-.8.2-5.1 1.3-9.5 2.5s-9.6 2.6-11.5 3.1c-1.9.5-4.6 1.2-6 1.5-1.4.2-3.9.9-5.7 1.5-1.7.5-4.4 1.2-6 1.5-1.5.3-5.7 1.4-9.3 2.4-3.6 1-7.6 2.1-9 2.4-1.4.3-4.3 1-6.5 1.6-2.2.6-4.7 1.2-5.5 1.4-.8.3-5 1.4-9.2 2.6-4.3 1.1-8.7 2.3-9.8 2.5-1.1.2-5.4 1.3-9.4 2.4-4 1.1-8.3 2.2-9.7 2.5-10.1 2.2-20.5 5.2-21.1 6.1-.4.5-.8.7-.8.4 0-.4-4.2.4-9.2 1.7-5.1 1.4-10.6 2.7-12.3 3-1.6.3-3.8 1-4.7 1.5-1 .5-1.8.8-1.8.6 0-.2-2.8.4-6.2 1.3l-6.3 1.7-.1 100.9c0 55.5.1 101.2.3 101.6.1.3 2.4-.1 5-.9 2.7-.8 5.7-1.6 6.8-1.9 1.1-.2 11.5-2.9 23.2-5.9 11.6-3.1 22.1-5.8 23.2-6 1.2-.2 2.5-.6 2.9-.9.5-.3 2.2-.8 3.8-1 1.6-.3 6.7-1.6 11.4-2.9 4.7-1.3 8.7-2.4 9-2.4.3-.1 2.5-.7 5-1.3 2.5-.7 5.2-1.4 6-1.5.8-.1 3.9-.9 6.9-1.8 2.9-.9 5.7-1.4 6.2-1.2.4.3 1 .1 1.3-.4.3-.5 2.3-1.2 4.3-1.6 5-1.1 4.4-.9 15.8-3.9 10.7-2.9 21-5.6 23.5-6.1.8-.2 1.7-.4 2-.5.3-.1 1-.3 1.5-.5.6-.1 1.2-.3 1.5-.4.3-.2 1.2-.4 2-.6.8-.1 3.5-.8 6-1.5s5.6-1.4 6.9-1.7c1.4-.2 2.9-.7 3.5-1.1.6-.3 1.7-.7 2.6-.7 2.3-.3 19.4-4.6 20.5-5.3.5-.3 1.8-.7 3-.9 2.7-.4 4.2-.7 9.5-2.3 2.5-.7 5.4-1.5 6.5-1.6 1.1-.2 5.4-1.2 9.5-2.4 8.8-2.4 33.7-9 36.4-9.5 1-.3 4.4-1.2 7.5-2.1 3.1-.9 6.7-1.8 8.1-2 1.4-.3 5.4-1.3 9-2.3 6.4-1.9 11.1-3.1 14-3.7.9-.2 5.6-1.4 10.5-2.7 5-1.3 9.7-2.3 10.5-2.2 2.6.5 14 3.3 30 7.6 8.5 2.2 18 4.7 21 5.5 3 .8 6.4 1.6 7.5 1.9 1.1.2 4.7 1.1 8 2 3.3 1 6.7 1.9 7.5 2.1.8.2 3.3.8 5.5 1.4 2.2.6 5.1 1.3 6.5 1.6 1.4.3 5.9 1.4 10 2.6 4.1 1.1 8.3 2.1 9.3 2.3.9.2 2.1.6 2.5.9.5.3 1.9.7 3.3.9 1.3.3 5.3 1.3 8.9 2.2 3.6.9 7.4 1.9 8.5 2.1 1.1.2 5.1 1.3 8.9 2.4 3.8 1 7.3 1.7 7.7 1.4.5-.3.9-.1.9.4s.6.9 1.3 1c.6 0 2.1.3 3.2.6 4.1 1.1 10.1 2.7 12 3.1 1.1.3 6.5 1.6 11.9 3.1 5.5 1.4 10.7 2.7 11.5 2.9.9.2 4.3 1.1 7.6 2 5.5 1.5 10.9 2.9 16 4.1 4.3 1.1 5 1.3 5 1.4 0 .1.7.3 1.5.5.8.1 3.5.8 6 1.5s5.2 1.4 6 1.6c.8.2 5 1.2 9.3 2.2 4.2 1.1 7.7 1.6 7.7 1.3 0-.3.4-.2.8.4.4.5 7.5 2.7 15.7 4.8 8.3 2 22 5.5 30.5 7.8 8.5 2.2 16.5 4.3 17.7 4.5 1.2.2 3.4.9 4.8 1.4 1.4.5 2.5.7 2.5.4 0-.4.7-.1 1.5.6s1.5.9 1.5.6c0-.4.9-.2 1.9.3 1.5.8 2 .7 2.5-.5.3-.9.6-46.7.6-101.8 0-79.5-.3-100.3-1.2-100.3-.7-.1-5.6-1.2-10.8-2.6-5.2-1.4-15.8-4.2-23.5-6.2-7.7-2-15.3-4-17-4.5-1.6-.5-4.1-1.1-5.5-1.4-1.4-.2-6-1.4-10.2-2.6-8.6-2.3-11.6-3.1-13.8-3.4-.9-.1-2-.5-2.5-.8-.6-.3-3.5-1.1-6.5-1.7-3-.7-6.2-1.5-7-1.8-.8-.3-2.4-.8-3.5-1-3-.5-24.8-6.3-26.5-7-.8-.3-2.2-.7-3-.8-1.8-.4-2.7-.6-16-4-5.8-1.5-11.2-2.8-12-3-.8-.2-2.7-.8-4.2-1.4-1.6-.6-2.8-.8-2.8-.5 0 .4-.6.1-1.3-.5-.8-.6-1.7-.8-2-.5-.3.3-1.2.2-1.9-.2s-1.9-.9-2.8-1c-.8-.1-7.6-1.8-15-3.8-14.6-4-15.8-4.3-20.8-5.1-1.9-.2-3.9-.8-4.5-1.2-.7-.4-2.3-.9-3.6-1.1-1.4-.2-3.2-.7-4.2-1.3-1-.5-2.8-.9-4.2-.9-1.3 0-2.7-.3-3.1-.7-.3-.4-1.5-.8-2.6-1-1.9-.3-5.2-1.1-34.5-8.8-7.7-2-14.7-3.9-15.5-4.1-13.1-3.2-12.3-3-21-5.4-4.1-1.1-8.6-2.3-10-2.6-1.4-.3-4.7-1.2-7.4-2-5.6-1.6-6-1.6-10.1-.2z"/><path d="M566.5 355.6c-3.8 1.2-12.4 3.9-19 5.9-6.6 2-12.7 3.9-13.5 4.2-.8.3-2 .7-2.6.8-.7.2-6.3 1.9-12.5 3.8-6.3 2-26.2 8.1-44.4 13.7-18.1 5.5-33.9 10.4-35 10.9l-2.1.9.1 289.5c0 191.7.3 289.9 1 290.6 2.1 2.1 54.7 30.1 57.5 30.6.3 0 3.9 1.7 8 3.7 10.6 5 14.7 6.8 30 13.3 7.4 3.1 14.4 6 15.5 6.5 3.2 1.3 12.6 4.7 17 6.1 2.2.7 4.5 1.7 5.1 2.1.9.7 8.9-1.5 14.4-3.9.8-.3 1.7-.7 2-.8.3-.1 1.8-.7 3.3-1.3 1.5-.7 4-1.5 5.5-1.8 1.5-.4 3.8-1.3 5.2-2 1.4-.7 7.9-3.5 14.5-6.3 6.6-2.7 14.7-6.1 18-7.6 11.1-5 49-23.8 51.8-25.7 1.5-1.1 2.7-1.6 2.7-1.1 0 .4.4.3.8-.2.7-1 3.2-2.4 14.7-8.5l6-3.2V395.5l-5.5-1.8c-3-1-6.6-2-7.9-2.3-1.4-.3-2.9-.8-3.5-1.2-.6-.3-2-.8-3.1-.9-1.1-.2-3.8-1-6-1.7-2.2-.8-6.2-2.1-9-2.9-2.7-.8-10.2-3.1-16.5-5-6.3-2-16.2-5-22-6.7-5.8-1.8-13.1-4.1-16.3-5.1-3.2-1.1-6.8-2.1-8-2.3-1.2-.3-2.3-.5-2.4-.7-.2-.1-.6-.2-1-.3-.5-.2-4.2-1.3-8.3-2.6-4.1-1.3-7.8-2.5-8.2-2.6-.5-.1-1-.3-1.3-.4-.3-.1-.8-.3-1.2-.4-1.6-.3-12.9-3.8-14.8-4.5-1.2-.5-4.6.1-9 1.5zM387 407.2c-1.9.5-4.6 1.1-6 1.4-1.4.3-4.8 1.2-7.6 2s-6 1.6-7 1.9c-1.1.2-6.4 1.6-11.9 3-5.5 1.5-10.8 2.9-11.7 3.1-3.8.9-6 1.4-24.8 6.4-10.7 2.8-20.4 5.3-21.5 5.5-1.1.3-8.1 2.1-15.5 4-7.4 2-14.6 3.8-16 4.1-1.4.3-3.8.9-5.5 1.5-1.6.5-4.6 1.3-6.5 1.7l-3.5.8v147.5c.1 127.3.5 164.4 2 166.9.1.3.6 3.2 1 6.5.3 3.2.8 6.2 1 6.6.3.3.7 2.1.9 4 .9 5.9 1.6 9.2 3.2 14.4.8 2.7 1.6 5.8 1.8 6.7.1 1 .5 2.1.9 2.4.4.4.7 1.5.7 2.4 0 1 .9 4.2 2.1 7.1 1.2 3 2.5 6.3 2.9 7.4 3.1 8 8.6 20.3 9.5 21.5.7.8 1.5 2.4 1.9 3.5 1.2 3.2 14.5 25.2 16.1 26.5.8.7 1.5 1.6 1.5 2.1s.6 1.7 1.4 2.6c13.2 16.6 19.2 23.9 23 27.9 2.5 2.7 4.9 5.3 5.4 5.7 4.7 5 18.8 17.8 27.2 24.7 3 2.5 6.1 5.1 6.9 5.8.8.7 2.6 2.1 4 3 2.5 1.6 9.8 6.9 13.1 9.5 2.2 1.8 14.6 9.7 15.1 9.7.6 0 .5-549.8-.1-550.3-.3-.2-2.1 0-4 .5zM761 681.4c0 168.9.4 275.6.9 275.6s1.6-.6 2.3-1.3c.7-.7 3.1-2.4 5.3-3.7 2.2-1.3 4.2-2.7 4.5-3 .3-.3 2.1-1.7 4-3s4.1-3 4.8-3.7c.7-.7 1.7-1.3 2.2-1.3.5 0 1.5-.6 2.2-1.3 1.7-1.6 6.6-5.6 10.8-8.7 12.2-9.1 37.2-33.7 45.8-45 1.5-1.9 2.9-3.7 3.2-4 .3-.3 2.1-2.5 4-5s3.7-4.7 4-5c.9-.8 11.6-17.3 13-20 .7-1.4 1.6-2.7 1.9-3 .3-.3 2-3.2 3.6-6.5 1.7-3.3 3.4-6.3 3.8-6.6.5-.3.8-.8.6-1-.1-.2.7-2.4 1.9-4.9 4.8-10.7 11.3-27.7 12.8-33.5 1-4 1.1-4.4 1.4-5 .3-.7.5-1.4 1.5-6 1.3-5.6 1.2-5.5 1.5-5.8.1-.1.3-1.1.5-2.2.1-1.1.6-3.6 1-5.5.8-3.8.9-4.7 2-12.9.4-3 .9-6.3 1.3-7.5.3-1.2.8-71.1.9-155.4l.4-153.2-2.6-1c-1.5-.6-3.7-1-5.1-1-1.3 0-2.4-.4-2.4-.8s-1.3-.9-3-1c-1.6-.1-4.1-.7-5.5-1.2-1.4-.5-3.8-1.2-5.3-1.5-1.5-.3-7.6-1.8-13.6-3.4-6.1-1.6-11.4-2.8-11.8-2.5-.4.3-.8 0-.8-.5 0-.6-1.2-1.1-2.6-1.1-1.4 0-3.3-.4-4.3-.9-.9-.5-3-1.1-4.6-1.4-1.7-.2-3.7-.7-4.5-1-1.4-.6-8.9-2.6-12-3.2-.8-.2-7.6-1.9-15-3.9s-14.4-3.8-15.5-4c-1.8-.3-27.3-6.9-31.7-8.2-1.7-.5-1.8 13.1-1.8 275z"/></svg>