<svg xmlns="http://www.w3.org/2000/svg" width="533pt" height="508" viewBox="0 0 533 381">
    <path fill="#828284" d="M144.64 4.88c29.85-3.15 60.61 2.41 87.31 16.19 31.74 16.11 57.54 43.49 71.85 76.07 12.21 27.61 16.09 58.83 11.05 88.6-4.57 28.1-17.2 54.79-35.87 76.27-22.05 25.66-52.71 43.79-85.85 50.65-30.39 6.38-62.71 3.55-91.42-8.36-28.94-11.85-54.1-32.65-71.19-58.83-16.09-24.33-25-53.31-25.45-82.47-.87-35.72 11.16-71.56 33.41-99.52 25.59-32.75 64.78-54.5 106.16-58.6m.9 20.91c-19.05 1.35-37.1 8.71-53.53 18.11-9.37 5.28-17.8 12.08-25.42 19.64-10.49 10.17-19.44 22-25.85 35.15-7.28 14.07-12.63 29.32-13.9 45.19-1.84 20.46-.84 41.71 6.63 61.05 4.12 11.07 9.56 21.65 16.06 31.52 8.85 12.58 19.75 23.69 32.04 32.94 14.42 10.1 30.61 17.75 47.63 22.31 20.86 4.38 42.65 4.38 63.52.02 17.06-4.55 33.28-12.22 47.73-22.34 12.27-9.25 23.16-20.35 32.01-32.92 8.96-13.59 15.92-28.55 20.14-44.29 4.52-20.98 4.52-42.94.1-63.93-2.73-10.2-6.49-20.13-11.4-29.48-9.21-18.95-23.68-34.97-40.3-47.74-14.45-10.25-30.74-17.98-47.84-22.63-15.59-3.37-31.74-4.14-47.62-2.6z"/>
    <g fill="#465ea8">
        <path d="M89.01 114.99c5.66.02 11.33.01 16.99.01v56h12.5c.01 5.17.01 10.33 0 15.5-4.15.01-8.31.02-12.46-.01-.08 7.19-.02 14.38-.04 21.57-5.84-.03-11.69.08-17.53-.08.05-7.15.02-14.31.02-21.47-13.31-.02-26.62.01-39.93-.01.01-5.77-.03-11.54.02-17.31 13.51-18.04 26.93-36.14 40.43-54.2M63.85 171h24.64c.01-11.42 0-22.84 0-34.26-8.24 11.4-16.43 22.83-24.64 34.26zM151.44 115.62c9.65-1.8 20.51.19 27.7 7.23 8.07 7.8 11.2 19.23 12.38 30.08 1.15 12.36.35 25.28-4.67 36.78-3.33 7.5-9.18 14.16-16.95 17.16-10.88 4.16-24.29 2.31-32.84-5.87-7.56-7.13-10.98-17.49-12.33-27.55-1.65-13.83-.7-28.49 5.51-41.16 4.06-8.38 11.87-15.11 21.2-16.67m2.69 15.49c-5.1 1.46-8.02 6.5-9.36 11.31-2.36 8.64-2.11 17.71-1.85 26.58.5 7.02 1.24 14.65 5.74 20.39 4.62 5.92 14.92 5.73 19.1-.61 5.03-7.54 5.22-17.06 5.48-25.81-.16-8.96-.11-18.58-4.68-26.59-2.77-4.97-9.14-6.91-14.43-5.27zM341.83 165.9c21.13-15.85 47.84-24.01 74.22-22.78 25.36 1.02 50.27 10.72 69.63 27.15 16.59 13.92 29.15 32.58 35.75 53.21 11.27 34.33 5.16 73.78-16.11 103.02-20.27 28.68-54.19 47.14-89.31 48.38-28.75 1.37-57.84-8.54-79.75-27.2-21.53-17.98-35.98-44.03-40.08-71.76 12.17-14.64 22.78-30.7 30.14-48.31 7.96-18.58 12.82-38.5 14.21-58.66.06-1.16.12-2.45 1.3-3.05m-1.33 63.63c-7.15 4.98-9.81 14.12-9.55 22.47h13.22c.37-4.85.99-10.54 5.37-13.53 3.94-2.22 9.48-2.03 12.8 1.25 2.89 2.99 3.34 7.73 1.88 11.51-1.4 3.33-4.17 5.83-7 7.97-7.12 5.12-15 9.4-20.97 15.94-4.71 5.07-6.79 12.03-6.8 18.85 16.61.03 33.21.01 49.82.01v-12c-10.75-.04-21.5.07-32.24-.05 7.03-9.22 18.47-13.27 26.43-21.47 8.57-8.69 7-25.08-3.47-31.61-8.84-5.34-20.93-5.17-29.49.66m63.98-3.85c-4.77 1.03-9.08 3.87-12.03 7.75-5.71 7.58-7.32 17.36-7.47 26.62.13 9.43 1.67 19.54 7.86 27.04 8.23 10.1 25.49 10.64 34.25.96 6.64-7.25 8.42-17.51 8.65-27.01.03-9.97-1.56-20.69-8.08-28.63-5.48-6.69-15.04-8.65-23.18-6.73m75.43 21.27c-8.8 16.23-17.49 32.52-26.18 48.81 1.94-.03 3.91.12 5.84-.23 8.79-16.09 17.22-32.38 25.96-48.51-1.88-.02-3.75-.04-5.62-.07m-30.57 1.58c-7.09 1.9-8.4 10.94-6.66 17.03 1.75 8.39 14.61 10.17 19.17 3.29 2.65-4.61 2.86-10.58.81-15.46-2.2-4.94-8.52-6.34-13.32-4.86m34.14 21.17c-3.62.92-6.25 4.11-6.93 7.71-1.07 5.05-.74 11.09 2.98 15.03 3.53 3 8.99 3.38 13.04 1.21 3.38-1.87 4.72-5.86 5.05-9.5.35-3.87.04-8.17-2.43-11.35-2.72-3.47-7.67-4.16-11.71-3.1zM253.07 144.25c2.55.01 5.1.01 7.65-.01-11.76 21.95-23.26 44.04-34.97 66.02-2.69.01-5.37.01-8.04.01 11.85-21.97 23.51-44.05 35.36-66.02zM212.18 146.14c5.44-1.4 12.08-.66 15.99 3.75 3.95 4.71 4.34 11.39 3.38 17.21-.69 5.04-3.72 10.1-8.79 11.68-6.11 1.87-14.07.94-17.84-4.79-3.15-4.94-3.44-11.25-2.37-16.87.87-5.04 4.48-9.8 9.63-10.98m2.19 6.39c-2.52 1.47-2.95 4.7-3.26 7.34-.18 3.59-.43 7.46 1.09 10.81 1.77 3.95 8.4 3.28 9.57-.81 1.33-4.5 1.36-9.46.32-14.02-.72-3.33-4.83-4.84-7.72-3.32zM256.38 175.67c5.94-2.31 13.94-1.37 17.81 4.15 4.01 6.27 3.81 14.56 1.23 21.34-3.51 9.05-16.98 10.44-23.31 3.71-3.99-4.61-4.56-11.19-3.84-17 .52-5.03 3.24-10.21 8.11-12.2m3.97 5.8c-2.88 1.74-3.07 5.47-3.32 8.46-.05 3.53-.29 7.36 1.42 10.57 1.07 1.95 3.48 2.38 5.5 1.97 3-1.06 3.65-4.58 3.92-7.35.17-3.68.54-7.58-.86-11.09-.81-2.67-4.3-3.84-6.66-2.56z"/>
        <path d="M407.23 236.95c4.48-1.66 9.85.57 11.85 4.91 2.85 6.29 2.95 13.38 2.93 20.16-.29 6.12-.56 12.76-4.11 18.01-3.2 4.77-10.99 5-14.59.6-3.53-4.38-4.08-10.26-4.48-15.65-.24-6.33-.28-12.76 1.23-18.94.98-3.82 3.17-7.83 7.17-9.09zM451.16 253.18c1.97-1.23 4.93-.07 5.5 2.2 1.03 3.53.89 7.49-.37 10.95-1.41 3.3-6.96 2.31-7.18-1.3-.51-3.82-1.24-9.17 2.05-11.85zM485.25 274.35c2.5-1.41 5.4.94 5.5 3.56.37 3.74.78 8.04-1.36 11.36-2.18 2.31-6.19.63-6.3-2.48-.43-4.03-1.32-9.58 2.16-12.44z"/>
    </g>
</svg>
