<svg xmlns="http://www.w3.org/2000/svg" width="265pt" height="265pt" viewBox="0 0 265 265">
    <g fill="#030104">
        <path d="M113.04 1.65c27.17-4.03 55.61.51 80.02 13.19 28.12 14.38 50.76 39.17 62.43 68.53 9.33 22.86 11.56 48.36 7.42 72.63-5.73 32.79-24.54 62.95-51.26 82.76-21.54 16.23-48.15 25.29-75.05 26.24h-9.08c-31.37-1.29-62.2-13.81-85.12-35.35C15.81 205.31.12 169.7 0 133.65v-2.41c.24-33.58 13.85-66.82 37.39-90.79 20.04-20.78 47.06-34.71 75.65-38.8m5.46 38.94c-6.78.46-13.07 3.16-19.46 5.22-9.07 3.82-17.86 8.53-25.43 14.87-8.39 7.64-16.64 15.78-21.91 25.98-4 7.84-7.63 15.93-10.27 24.33-2.43 13.53-2.36 27.46-.43 41.05 1.63 7.58 4.93 14.66 8.38 21.56 3.57 8.71 9.36 16.33 15.95 22.99 7.15 7.36 15.04 14.38 24.65 18.32 7.06 3.53 14.25 7.01 21.95 8.9 11.92 1.9 24.12 2.19 36.1.7 7.93-.46 15.1-4.18 22.3-7.18 6.31-3.15 12.93-5.98 18.27-10.7 6.86-5.08 12.56-11.5 18.17-17.89 5.63-8.35 10.7-17.16 14.08-26.67 5.41-15.39 5.26-32.11 3.01-48.09-2.48-13.03-8.87-24.89-15.99-35.93-4.71-6.44-10.58-11.91-16.4-17.32-9.66-7.85-20.94-13.67-32.77-17.48-6.95-2.61-14.46-2.82-21.77-3.32-6.15-.64-12.3.31-18.43.66z"/>
        <path d="M162.42 78.37c5.02-4.91 12.7-6.93 19.46-4.97 7.34 1.8 13.3 8.11 14.68 15.53 1.29 5.14-.07 10.56-2.59 15.1-16.34 29.31-32.64 58.65-48.92 87.99-2.16 4.25-5.11 8.3-9.37 10.63-7.59 4.48-18.03 3.1-24.24-3.14-13.69-13.63-27.32-27.33-40.98-40.99-3.62-3.52-5.9-8.43-6.07-13.48-.58-9.05 5.75-18.14 14.55-20.51 7.04-2.15 15.19-.17 20.32 5.14 7.21 7.21 14.43 14.41 21.68 21.58 11.91-21.55 23.93-43.04 35.85-64.58 1.62-2.92 3.16-5.98 5.63-8.3z"/>
    </g>
</svg>
