<svg xmlns="http://www.w3.org/2000/svg" width="161pt" height="160pt" viewBox="0 0 161 160">
    <path d="M15.33 0h6.09c3.82.86 7.59 2.42 10.33 5.3 16.19 16.15 32.5 32.17 48.63 48.38 16.64-16.13 32.9-32.66 49.44-48.91 2.65-2.6 6.21-3.94 9.76-4.77h6.05c7.59 1.58 13.82 7.6 15.37 15.24v6.72c-1.11 3.54-2.63 7.08-5.39 9.65C139.32 47.7 123.18 63.95 106.85 80c16.33 16.05 32.47 32.3 48.77 48.4 2.88 2.7 4.49 6.41 5.38 10.2v6.35c-1.77 7.47-7.75 13.55-15.33 15.05h-6.78c-3.51-1.12-7.05-2.58-9.64-5.3-16.19-16.15-32.5-32.17-48.63-48.39-16.28 15.83-32.27 31.97-48.4 47.95-2.65 2.89-6.29 4.52-9.95 5.74h-6.94C7.79 158.51 1.92 152.5 0 145.15v-6.93c1.03-3.65 2.61-7.25 5.43-9.87C21.71 112.27 37.84 96.04 54.15 80 37.82 63.95 21.69 47.71 5.4 31.62 2.67 29.09 1.19 25.6 0 22.15V15.3C1.45 7.64 7.74 1.57 15.33 0z"/>
</svg>
