<?xml version="1.0" encoding="UTF-8"?>
<svg width="161px" height="160px" viewBox="0 0 161 160" version="1.1" xmlns="http://www.w3.org/2000/svg" xmlns:xlink="http://www.w3.org/1999/xlink">
    <!-- Generator: Sketch 45.2 (43514) - http://www.bohemiancoding.com/sketch -->
    <title>Shape</title>
    <desc>Created with Sketch.</desc>
    <defs></defs>
    <g id="Page-1" stroke="none" stroke-width="1" fill="none" fill-rule="evenodd">
        <g id="close" fill-rule="nonzero" fill="#4961AE">
            <path d="M15.33,0 L21.42,0 C25.24,0.86 29.01,2.42 31.75,5.3 C47.94,21.45 64.25,37.47 80.38,53.68 C97.02,37.55 113.28,21.02 129.82,4.77 C132.47,2.17 136.03,0.83 139.58,3.55271368e-15 L145.63,3.55271368e-15 C153.22,1.58 159.45,7.6 161,15.24 L161,21.96 C159.89,25.5 158.37,29.04 155.61,31.61 C139.32,47.7 123.18,63.95 106.85,80 C123.18,96.05 139.32,112.3 155.62,128.4 C158.5,131.1 160.11,134.81 161,138.6 L161,144.95 C159.23,152.42 153.25,158.5 145.67,160 L138.89,160 C135.38,158.88 131.84,157.42 129.25,154.7 C113.06,138.55 96.75,122.53 80.62,106.31 C64.34,122.14 48.35,138.28 32.22,154.26 C29.57,157.15 25.93,158.78 22.27,160 L15.33,160 C7.79,158.51 1.92,152.5 0,145.15 L0,138.22 C1.03,134.57 2.61,130.97 5.43,128.35 C21.71,112.27 37.84,96.04 54.15,80 C37.82,63.95 21.69,47.71 5.4,31.62 C2.67,29.09 1.19,25.6 0,22.15 L0,15.3 C1.45,7.64 7.74,1.57 15.33,0 Z" id="Shape"></path>
        </g>
    </g>
</svg>