<svg xmlns="http://www.w3.org/2000/svg" width="63.745" height="63.745" viewBox="0 0 63.745 63.745">
    <path d="M57.063 21.217v5.511l.266.65-.266.108v9.717l3.665-1.495.804 1.967c.354.87-.045 1.859-.89 2.205L16.405 57.937c-.837.342-1.831-.104-2.178-.952l-.803-1.968 33.854-13.819H23.475l-13.45 5.49-2.241-5.491h-2.25L12.3 57.771a3.771 3.771 0 0 0 3.497 2.367c.48 0 .951-.092 1.397-.274L61.43 41.807c1.908-.78 2.819-2.986 2.03-4.92l-6.397-15.67z"/>
    <path d="M44.866 26.439V25.1l-.777 1.339zM18.011 25.1l-.775 1.339h.775zM23.098 27.017a.636.636 0 0 0 .116-.398c0-.181-.044-.32-.133-.417a.424.424 0 0 0-.326-.145.432.432 0 0 0-.276.095c-.12.093-.18.243-.18.45 0 .167.045.304.135.409.09.106.205.159.343.159a.385.385 0 0 0 .321-.153zM8.95 34.536a.556.556 0 0 0 .324-.102c.099-.066.15-.189.153-.37v-.199a.63.63 0 0 1-.104.052.961.961 0 0 1-.144.036l-.122.023a.788.788 0 0 0-.248.073.246.246 0 0 0-.127.228c0 .092.026.156.077.197a.298.298 0 0 0 .191.062zM30.07 27.166c.139 0 .25-.042.329-.126a.502.502 0 0 0 .119-.356c0-.158-.041-.279-.121-.361-.082-.083-.19-.123-.327-.123s-.246.041-.327.123c-.081.082-.121.202-.121.361 0 .153.04.272.119.356s.19.126.329.126zM14.708 33.199c-.138 0-.244.038-.32.116a.555.555 0 0 0-.142.318h.922a.446.446 0 0 0-.142-.325.474.474 0 0 0-.318-.109zM32.507 24.962a.424.424 0 0 0-.268.087c-.117.091-.176.247-.176.466 0 .184.038.322.113.415.075.092.19.138.345.138a.42.42 0 0 0 .238-.073c.139-.088.208-.243.208-.46 0-.176-.04-.315-.122-.418a.408.408 0 0 0-.338-.155zM30.069 25.731c.125 0 .221-.036.289-.108a.39.39 0 0 0 .102-.277.4.4 0 0 0-.102-.289c-.068-.07-.165-.104-.289-.104a.388.388 0 0 0-.289.104.39.39 0 0 0-.104.289c0 .112.034.205.104.277a.379.379 0 0 0 .289.108zM21.257 33.977a.764.764 0 0 0-.246.073.246.246 0 0 0-.127.228c0 .092.026.156.077.197a.293.293 0 0 0 .188.062.553.553 0 0 0 .324-.102c.099-.067.15-.189.153-.37v-.199a.561.561 0 0 1-.104.052.961.961 0 0 1-.144.036l-.121.023zM30.247 33.977a.746.746 0 0 0-.247.073.246.246 0 0 0-.127.228c0 .092.026.156.077.197a.294.294 0 0 0 .189.062.556.556 0 0 0 .324-.102c.099-.067.15-.189.153-.37v-.199a.594.594 0 0 1-.248.088l-.121.023zM35.578 33.315a.556.556 0 0 0-.143.318h.923a.45.45 0 0 0-.144-.325.472.472 0 0 0-.317-.109c-.138 0-.244.038-.319.116zM49.631 27.17a.383.383 0 0 0 .32-.153.63.63 0 0 0 .117-.398c0-.181-.045-.32-.134-.417a.421.421 0 0 0-.326-.145.427.427 0 0 0-.275.095c-.12.093-.18.243-.18.45 0 .167.044.304.135.409.09.106.206.159.343.159zM5.309 26.881c.058.189.179.285.36.285s.3-.095.357-.285c.049-.162.072-.4.08-.686.001-.047.006-.083.006-.133 0-.374-.028-.652-.084-.832-.056-.18-.175-.27-.357-.27s-.301.089-.36.27c-.06.18-.088.458-.088.832 0 .184.008.345.024.484.011.131.032.244.062.335z"/>
    <path d="M2.176 38.916c.484.229 1.02.368 1.589.368h48.228a3.724 3.724 0 0 0 2.614-1.078 3.826 3.826 0 0 0 1.151-2.735V7.421a3.824 3.824 0 0 0-1.151-2.735 3.729 3.729 0 0 0-2.614-1.079H3.766C1.689 3.607 0 5.319 0 7.421v28.05c0 1.524.895 2.835 2.176 3.445zm2.42-12.854c0-.513.08-.91.239-1.188.159-.279.436-.418.833-.418.396 0 .674.14.833.418.145.254.216.617.228 1.065.001.043.011.076.011.122 0 .513-.08.908-.239 1.185s-.437.416-.833.416c-.396 0-.674-.138-.833-.416a1.676 1.676 0 0 1-.166-.466 3.294 3.294 0 0 1-.073-.718zM33.738 13.61a5.149 5.149 0 0 1 5.142-5.141 5.1 5.1 0 0 1 2.99.977c.877-.701 1.974-1.138 3.181-1.138a5.074 5.074 0 0 1 4.413 2.569 5.07 5.07 0 0 1 .708 2.554 5.128 5.128 0 0 1-5.121 5.122 5.075 5.075 0 0 1-2.963-.96c-.883.712-1.988 1.158-3.208 1.158-1.66 0-3.121-.803-4.061-2.026a5.056 5.056 0 0 1-.912-1.878 5.002 5.002 0 0 1-.169-1.237zm-.968 19.766c-.046-.1-.134-.148-.266-.148-.154 0-.256.049-.309.148a.573.573 0 0 0-.042.252v1.233h-.544v-2.046h.521v.299a.856.856 0 0 1 .188-.227.643.643 0 0 1 .404-.121c.155 0 .283.033.38.103a.597.597 0 0 1 .176.247.69.69 0 0 1 .262-.266.792.792 0 0 1 .636-.032.597.597 0 0 1 .354.449c.013.068.019.169.019.303l-.004 1.292h-.548v-1.306a.427.427 0 0 0-.039-.191c-.047-.094-.134-.143-.262-.143-.149 0-.251.062-.308.185a.589.589 0 0 0-.043.234v1.221h-.54v-1.221a.66.66 0 0 0-.035-.265zm.041-6.914a.812.812 0 0 1-.422.103.96.96 0 0 1-.658-.256c-.192-.171-.288-.417-.288-.738 0-.333.096-.604.289-.81a.973.973 0 0 1 .749-.31c.474 0 .798.209.974.628.101.237.149.55.149.937 0 .376-.047.689-.144.94-.184.479-.519.718-1.007.718-.234 0-.443-.069-.628-.207-.186-.139-.293-.34-.32-.603h.608a.38.38 0 0 0 .116.223.353.353 0 0 0 .252.085c.2 0 .342-.111.423-.335.045-.123.072-.301.083-.538a.57.57 0 0 1-.176.163zm-3.653-.856a.936.936 0 0 1-.067-.327c0-.227.085-.419.255-.579.17-.159.411-.238.722-.238.31 0 .551.079.722.238s.255.352.255.579c0 .101-.023.21-.068.327-.044.116-.143.217-.293.303a.868.868 0 0 1 .347.34.976.976 0 0 1 .117.474.884.884 0 0 1-.291.668c-.193.183-.464.275-.812.275-.348 0-.611-.092-.79-.275s-.269-.406-.269-.668c0-.174.04-.332.119-.474a.748.748 0 0 1 .345-.319c-.149-.099-.247-.207-.292-.324zm1.372 7.635a.563.563 0 0 0-.261-.049c-.128 0-.22.033-.272.095a.38.38 0 0 0-.076.188h-.518a.79.79 0 0 1 .151-.441c.142-.18.386-.271.732-.271.225 0 .425.045.601.133.175.09.262.258.262.505v.94c0 .064.001.144.004.237a.316.316 0 0 0 .032.143.21.21 0 0 0 .08.063v.078h-.583a.534.534 0 0 1-.033-.117 1.206 1.206 0 0 1-.015-.124 1.09 1.09 0 0 1-.257.205.77.77 0 0 1-.394.101.685.685 0 0 1-.462-.158c-.122-.106-.183-.256-.183-.45 0-.252.098-.434.294-.547.107-.062.266-.104.474-.131l.183-.022a.93.93 0 0 0 .215-.047c.077-.032.115-.083.115-.152-.001-.089-.031-.148-.089-.179zm-2.144.125c-.052-.105-.152-.158-.297-.158-.181 0-.304.077-.372.231a.793.793 0 0 0-.052.312v1.109h-.537v-2.046h.519v.299a.893.893 0 0 1 .194-.227.674.674 0 0 1 .418-.124c.211 0 .383.055.517.167.135.11.202.295.202.551v1.381h-.549v-1.246a.557.557 0 0 0-.043-.249zm-2.977 1.086c.022.021.086.03.196.03h.053l.054-.004v.401l-.254.009c-.253.008-.426-.036-.519-.131-.06-.062-.091-.157-.091-.285V33.21h-.286v-.38h.286v-.573h.531v.573h.333v.38h-.333v1.084c-.002.085.008.137.03.158zm.105-8.259a4.343 4.343 0 0 0-.237.707c-.07.278-.105.508-.105.687h-.634c.019-.558.202-1.136.549-1.739.225-.373.413-.633.564-.78h-1.549l.008-.549h2.195v.479c-.092.089-.219.25-.382.481-.163.229-.3.467-.409.714zm-8.733.724v-.533l1.143-1.886h.687v1.942h.351v.478h-.352v.669h-.598v-.669l-1.231-.001zm1.398 5.172h.579v2.273h1.385v.499h-1.964v-2.772zm1.361-4.66c-.189-.159-.296-.384-.317-.675h.608c.024.133.071.235.139.307s.167.108.298.108a.406.406 0 0 0 .346-.16.645.645 0 0 0 .119-.401.71.71 0 0 0-.111-.402c-.074-.109-.19-.164-.347-.164a.586.586 0 0 0-.193.028.386.386 0 0 0-.217.19l-.548-.026.218-1.717h1.71v.519h-1.27l-.111.679c.095-.062.167-.103.221-.122a.926.926 0 0 1 .323-.049c.257 0 .481.086.672.259.191.173.286.423.286.754 0 .287-.093.543-.276.77-.184.226-.459.338-.827.338-.291.002-.534-.077-.723-.236zm2.001 5.812a.561.561 0 0 0-.26-.049c-.128 0-.22.033-.273.095a.371.371 0 0 0-.076.188h-.517a.79.79 0 0 1 .151-.441c.142-.18.387-.271.732-.271.225 0 .425.045.601.133.175.09.263.258.263.505v.94c0 .064.001.144.004.237a.316.316 0 0 0 .032.143.21.21 0 0 0 .08.063v.078h-.583a.683.683 0 0 1-.048-.241 1.09 1.09 0 0 1-.257.205.773.773 0 0 1-.394.101.69.69 0 0 1-.463-.158c-.122-.106-.182-.256-.182-.45 0-.252.098-.434.294-.547.107-.062.266-.104.474-.131l.184-.022a.906.906 0 0 0 .214-.047c.075-.037.114-.088.114-.155-.002-.086-.031-.145-.09-.176zm.361-6.065c-.145-.256-.217-.585-.217-.991 0-.237.01-.43.03-.579.036-.265.105-.485.208-.661.088-.15.205-.271.348-.362a.932.932 0 0 1 .515-.138c.289 0 .519.074.691.222s.268.345.29.591h-.607a.302.302 0 0 0-.059-.165c-.065-.097-.165-.146-.298-.146-.199 0-.341.111-.424.334a2.093 2.093 0 0 0-.095.545.684.684 0 0 1 .264-.197.878.878 0 0 1 .343-.062.89.89 0 0 1 .678.281c.176.188.265.427.265.718s-.086.546-.259.768c-.173.222-.442.333-.807.333-.391 0-.68-.163-.866-.491zm1.858 7.015c-.05-.031-.237-.085-.562-.161-.232-.059-.396-.131-.491-.217a.472.472 0 0 1-.143-.368c0-.19.074-.353.223-.489.149-.136.359-.205.628-.205.256 0 .465.051.626.154.162.103.254.277.278.528h-.536a.32.32 0 0 0-.058-.163c-.06-.072-.16-.108-.301-.108-.117 0-.2.019-.25.054-.05.037-.075.08-.075.129a.14.14 0 0 0 .079.133c.053.029.239.078.559.148.214.051.374.126.48.229.105.103.159.23.159.385a.624.624 0 0 1-.228.497c-.151.128-.386.192-.702.192-.323 0-.562-.067-.715-.204a.662.662 0 0 1-.231-.52h.544c.012.095.036.162.074.202.066.073.19.108.371.108.106 0 .19-.016.252-.047.062-.03.094-.078.094-.141a.152.152 0 0 0-.075-.136zm-9.314.229a.55.55 0 0 0 .296.077.455.455 0 0 0 .298-.094.426.426 0 0 0 .11-.143h.547c-.015.122-.081.245-.2.371-.183.199-.44.299-.771.299-.273 0-.514-.084-.722-.252-.208-.168-.313-.441-.313-.82 0-.355.094-.627.283-.817.188-.188.432-.283.733-.283.178 0 .339.032.482.096a.812.812 0 0 1 .354.303c.084.122.138.264.164.423.015.096.021.231.018.408h-1.493c.007.203.08.348.214.432zm-.495-9.109a.683.683 0 0 1-.163.464.554.554 0 0 1-.214.161c.056 0 .135.047.239.144.156.145.233.341.233.592 0 .262-.091.494-.273.694-.182.199-.452.298-.808.298-.439 0-.745-.144-.917-.431-.09-.153-.14-.354-.15-.6h.6c0 .124.02.227.059.308.074.15.209.225.405.225a.448.448 0 0 0 .313-.123c.089-.083.133-.2.133-.355 0-.205-.083-.341-.248-.409-.094-.039-.243-.059-.445-.059v-.438c.198-.003.337-.022.415-.059.092-.041.141-.121.171-.219.014-.046.033-.087.033-.146a.414.414 0 0 0-.103-.289.383.383 0 0 0-.292-.112c-.144 0-.25.046-.318.138a.573.573 0 0 0-.097.367h-.57a1.51 1.51 0 0 1 .08-.439.996.996 0 0 1 .235-.337.83.83 0 0 1 .284-.167c.11-.039.245-.058.405-.058.297 0 .537.077.719.23.166.14.245.328.261.554.003.025.013.042.013.066zm-1.181 8.053c-.048-.094-.135-.143-.264-.143-.148 0-.25.062-.306.185a.571.571 0 0 0-.044.234v1.221h-.539V33.64a.68.68 0 0 0-.038-.265c-.045-.1-.133-.148-.265-.148-.153 0-.255.049-.309.148a.573.573 0 0 0-.042.252v1.233h-.544v-2.046h.521v.299a.856.856 0 0 1 .188-.227.645.645 0 0 1 .404-.121c.156 0 .284.033.38.103a.58.58 0 0 1 .176.247.702.702 0 0 1 .261-.266.79.79 0 0 1 .636-.032.606.606 0 0 1 .355.449c.013.068.019.169.019.303l-.004 1.292h-.549v-1.306a.396.396 0 0 0-.036-.191zm24.953-8.254a.385.385 0 0 0-.312-.131c-.186 0-.312.07-.379.208a1.046 1.046 0 0 0-.069.381h-.594c.01-.264.059-.478.145-.641.163-.311.452-.465.868-.465.329 0 .591.09.786.273.194.182.291.423.291.724 0 .23-.069.435-.206.614a2.102 2.102 0 0 1-.445.397l-.244.174a5.385 5.385 0 0 0-.315.235.71.71 0 0 0-.143.17h1.357v.539h-2.128c.004-.223.053-.427.142-.611.088-.208.293-.427.619-.659.28-.201.464-.346.547-.434a.642.642 0 0 0 .19-.445.499.499 0 0 0-.11-.329zm-1.345 7.744a.801.801 0 0 1 .354.303c.085.122.139.264.165.423.014.096.021.231.016.408H35.42c.008.204.08.35.215.433.082.051.18.077.296.077a.455.455 0 0 0 .298-.094.441.441 0 0 0 .111-.143h.546a.674.674 0 0 1-.198.371c-.184.199-.441.299-.771.299-.272 0-.514-.084-.722-.252s-.312-.441-.312-.82c0-.355.094-.627.282-.817.188-.188.433-.283.734-.283.177-.001.338.031.479.095zm-.961-5.268h-.627v-2.144h-.73v-.416c.193-.008.328-.022.404-.039a.564.564 0 0 0 .299-.162.523.523 0 0 0 .12-.223.492.492 0 0 0 .023-.124h.511v3.108zm7.041-1.308c-.094-.039-.243-.059-.445-.059v-.438c.197-.003.337-.022.415-.059.136-.061.204-.181.204-.365a.41.41 0 0 0-.104-.289.38.38 0 0 0-.291-.112c-.145 0-.25.046-.318.138a.579.579 0 0 0-.097.367h-.569c.004-.154.032-.301.079-.439a.996.996 0 0 1 .235-.337.83.83 0 0 1 .284-.167 1.22 1.22 0 0 1 .404-.058c.297 0 .537.077.721.23a.769.769 0 0 1 .272.619.69.69 0 0 1-.163.463.544.544 0 0 1-.215.161c.057 0 .136.048.241.144.156.145.233.342.233.592a.999.999 0 0 1-.273.693c-.182.199-.452.299-.809.299-.439 0-.746-.144-.916-.432-.091-.152-.14-.353-.149-.6h.599c0 .125.02.227.061.309.073.15.209.225.403.225a.448.448 0 0 0 .313-.123c.089-.083.134-.2.134-.355-.001-.202-.085-.338-.249-.407zm3.358.161v.478h-.353v.669h-.598v-.669h-1.229v-.534l1.142-1.886h.688v1.942h.35zm1.661-.233c-.073-.109-.189-.164-.347-.164a.576.576 0 0 0-.192.028.388.388 0 0 0-.218.19l-.547-.026.218-1.717h1.711v.519h-1.271l-.111.679c.095-.062.167-.103.22-.122a.934.934 0 0 1 .323-.049c.258 0 .481.086.672.259.191.173.286.423.286.754 0 .287-.092.543-.275.77s-.459.338-.827.338c-.296 0-.539-.079-.728-.237-.189-.159-.297-.383-.318-.675h.608c.024.133.071.235.14.307s.169.108.299.108a.408.408 0 0 0 .347-.16.663.663 0 0 0 .118-.402.676.676 0 0 0-.108-.4zm3.146-.946h-.608a.31.31 0 0 0-.059-.165c-.065-.097-.165-.146-.298-.146-.199 0-.342.111-.425.334a2.1 2.1 0 0 0-.094.545.674.674 0 0 1 .263-.197.887.887 0 0 1 .344-.063c.274 0 .501.094.678.282.176.188.265.427.265.717 0 .291-.087.546-.26.768-.173.222-.441.333-.807.333-.391 0-.68-.164-.865-.491-.146-.256-.217-.585-.217-.991 0-.237.011-.43.03-.579.035-.265.105-.484.208-.661.089-.15.205-.271.349-.362a.933.933 0 0 1 .516-.138c.288 0 .519.074.69.222a.857.857 0 0 1 .29.592zm-40.096-.798c.33 0 .591.09.786.273.195.182.292.423.292.724 0 .23-.068.435-.206.614a2.024 2.024 0 0 1-.437.39l-.008.006-.245.174a5.767 5.767 0 0 0-.315.235.71.71 0 0 0-.143.17h1.357v.539H9.479c.005-.208.051-.397.129-.572.005-.013.008-.027.014-.04.087-.208.292-.427.618-.659.281-.201.464-.346.546-.434a.639.639 0 0 0 .191-.445c0-.131-.037-.241-.109-.328s-.177-.131-.312-.131c-.186 0-.312.07-.379.208a1.008 1.008 0 0 0-.068.381h-.595c.01-.264.058-.478.144-.641a.808.808 0 0 1 .296-.304c.056-.035.123-.054.188-.077.117-.039.233-.083.385-.083zM6.079 34.861H5.54v-2.772h.607l1.1 1.933v-1.933h.54v2.772h-.579l-1.127-1.967v1.967h-.002zm1.858-7.275V25.442h-.732v-.416c.193-.008.327-.022.404-.039a.564.564 0 0 0 .299-.162.533.533 0 0 0 .119-.223.505.505 0 0 0 .024-.124h.511v3.109h-.353l-.272-.001zm-2.009-9.713v-1.978h1.986v2.023H5.933c0-.016-.005-.03-.005-.045zm1.986 2.644a2.778 2.778 0 0 1-1.762-1.558h1.762v1.558zm1.041-1.558h1.717v1.685H8.955v-1.685zm2.758 0h1.763a2.78 2.78 0 0 1-1.763 1.558v-1.558zm1.986-1.086c0 .016-.004.029-.004.045h-1.98v-2.023H13.7l-.001 1.978zm-2.506-3.02l-.521.001v3.063H8.955v-5.045h1.973c1.251 0 2.299.839 2.642 1.98h-2.377zm-3.279 0H6.057A2.765 2.765 0 0 1 7.914 13v1.853zm.527 18.916c.107-.061.266-.105.474-.131l.184-.023c.1-.013.17-.027.214-.047.077-.033.116-.084.116-.151 0-.085-.029-.142-.088-.175a.561.561 0 0 0-.26-.049c-.128 0-.22.033-.273.095a.38.38 0 0 0-.076.188h-.517a.782.782 0 0 1 .151-.441c.142-.18.387-.271.732-.271.225 0 .425.045.601.133.175.09.263.258.263.505v.94c0 .064.001.144.004.237.004.069.014.118.032.143a.206.206 0 0 0 .079.063v.078h-.583a.534.534 0 0 1-.033-.117 1.567 1.567 0 0 1-.015-.124 1.09 1.09 0 0 1-.257.205.773.773 0 0 1-.394.101.69.69 0 0 1-.463-.158c-.122-.106-.182-.256-.182-.45-.002-.256.096-.439.291-.551z"/>
    <path d="M35.824 16.314a4.068 4.068 0 0 0 3.056 1.395c.873 0 1.679-.279 2.345-.748H42.947c.013-.01.021-.024.035-.034.278-.223.533-.473.751-.756h-2.999a5.504 5.504 0 0 1-.329-.611h3.721a4.47 4.47 0 0 0 .329-.791h-4.327c-.017-.063-.043-.124-.057-.188-.039-.162-.055-.329-.075-.495h4.616c.028-.204.062-.408.062-.62 0-.058-.015-.112-.019-.171h-4.714c.007-.226.033-.447.068-.664h4.577a4.535 4.535 0 0 0-.232-.791h-4.149c.079-.237.169-.463.279-.683h3.525c-.073-.119-.17-.219-.25-.331-.114-.156-.216-.322-.351-.461H40.974c.047-.062.1-.12.148-.18a4.08 4.08 0 0 0-2.24-.674 4.104 4.104 0 0 0-4.1 4.099 4.032 4.032 0 0 0 1.042 2.704z"/>
</svg>
