<svg xmlns="http://www.w3.org/2000/svg" width="1118pt" height="1000pt" viewBox="0 0 1118 1000">
    <g fill="#fab915">
        <path d="M72.87 0H900.3c1.41.73 2.96 1.17 4.54 1.49 17.79 3.3 34.35 12.7 46.42 26.17 13.95 15.19 21.58 35.76 21.6 56.33-.02 16.06.01 32.12-.02 48.19 17.48.28 34.98 4.29 50.45 12.53 28.14 14.6 49.12 42.17 55.61 73.21 2.47 10.83 2.61 21.99 2.49 33.05-.04 60.97.06 121.95-.05 182.92-50.79.02-101.58.01-152.37.01-17.38-.4-34.85 2.58-51.07 8.85-29.13 11.15-53.9 33.12-68.5 60.67-18.52 34.33-20.62 76.9-5.87 112.98 10.88 27.06 31.08 50.22 56.42 64.67 14.42 8.26 30.41 13.76 46.87 16.07 9.98 1.52 20.11 1.29 30.18 1.32 48.61.01 97.23-.04 145.84.02.08 58.51.01 117.01.04 175.52-.17 10.35.54 20.76-.94 31.04-3.73 31.76-22.5 61.29-49.6 78.24-10.56 6.7-22.3 11.53-34.51 14.22-3.59.78-7.31 1.08-10.73 2.5H95.69c-2.16-1.13-4.61-1.34-6.96-1.78-29.72-5.19-56.65-23.78-72.45-49.43a108.075 108.075 0 0 1-13.95-34.77c-.68-3.33-1-6.77-2.33-9.92V72.69c2.03-4.72 2.18-10 4.05-14.8 8.71-27.58 32.67-49.8 61.03-55.84 2.63-.53 5.29-1.02 7.79-2.05M60.05 59.08c-8.39 7.93-13.13 19.42-13.11 30.93.14 12.84 6.31 25.56 16.57 33.36 7.5 5.86 17.02 9.16 26.55 8.87 278.58-.02 557.15.03 835.72-.03-.06-14.75.1-29.49-.07-44.24-.5-16.42-11.44-31.91-26.76-37.83-7.26-3.04-15.25-3.33-23-3.12H90c-11.03.05-22.09 4.24-29.95 12.06m259.87 253.88c-.05 11.88.05 23.78-.05 35.67-12.95.1-25.9-.08-38.84.08-3.84-.16-6.85 3.57-6.58 7.26-.05 11.69-.04 23.37-.01 35.06-.28 3.73 2.73 7.48 6.61 7.34 12.93.22 25.87.01 38.81.1.12 112.26.01 224.53.05 336.8-11.32.09-22.64.02-33.96.03-2.41-.02-4.94.3-6.98 1.67-3.12 1.85-4.61 5.55-4.54 9.07.01 10.3-.08 20.61.05 30.92-.04 5.13 4.37 9.62 9.5 9.72 11.97.23 23.95-.02 35.92.12.02 11.72 0 23.45.01 35.18-.28 7 6.03 13.52 13.09 13.18 12.3-.01 24.6 0 36.9-.01 7.05.31 13.08-6.16 13.02-13.08.08-11.76-.02-23.53.04-35.29 13.67-.03 27.33-.02 41 0 .1 10.07.04 20.14.04 30.21.05 3.33-.35 6.84 1.03 9.99 1.81 4.82 6.77 8.31 11.95 8.17 12.33.01 24.66 0 37 .01 7.06.33 13.28-6.17 13.09-13.15.03-11.74-.02-23.49.02-35.23 24.57-.28 49.46 1.05 73.67-4.02 18.15-3.98 35.94-10.95 50.72-22.41 29.09-21.86 46.09-58.13 45.7-94.36.51-17.47-2.3-35.11-8.95-51.31-7.16-17.58-18.94-33.47-34.49-44.5-8.96-6.59-19.28-10.99-29.78-14.43.02-.34.07-1.01.1-1.35 9.14-4.91 17.94-10.65 25.31-18.03 12.03-11.51 20.73-26.32 25.48-42.25 5.48-18.47 6.14-38.26 2.61-57.15-3.86-20.54-13.69-40.06-28.6-54.78-12.13-12.27-27.62-20.79-43.87-26.29-25.12-8.07-51.82-7.21-77.88-7.26-.11-11.9.02-23.8-.05-35.69.04-6.92-6.14-12.92-13.01-12.94-12.38-.04-24.75-.06-37.13.01-6.83.08-12.85 6.09-12.88 12.93-.12 11.9.08 23.8-.1 35.69-13.65.01-27.31.04-40.96-.01-.11-11.9.06-23.8-.08-35.69-.05-6.86-6.06-12.84-12.9-12.92-12.34-.07-24.7-.05-37.04-.01-6.89-.01-13.14 5.99-13.04 12.95z"/>
        <path d="M385.92 398.47c39.38-.04 78.75.02 118.12-.02 15.84.06 32.13 1.83 46.52 8.89 14.5 8.96 23.19 25.07 26.13 41.52 2.81 16.2 1.6 33.43-5.23 48.52-4.93 10.91-13.07 20.43-23.45 26.47-9.92 5.92-21.54 8.57-33.03 8.53-43.03.04-86.05.02-129.08.01-.01-44.64-.05-89.28.02-133.92zM888.87 490.84c12.09-5.98 25.64-8.77 39.1-8.64 50.01.01 100.02.02 150.03-.01 8.29-.3 16.79 1.5 23.81 6.06 8.2 5.03 13.59 13.48 16.19 22.6v109.47c-1.19 2.46-1.92 5.09-2.94 7.62-5.32 13.04-18.92 22.15-33.01 22.05-52.68-.02-105.36 0-158.04-.01-26.19-.27-51.65-14.02-66.64-35.44-16.23-22.67-19.79-53.61-9.3-79.42 7.52-19.12 22.36-35.23 40.8-44.28zM384.31 582.25c44.56-.1 89.12-.01 133.68-.04 15.44-.04 31.2 3.28 44.4 11.55 14.1 8.56 24.47 22.62 29.36 38.3 5.72 18.4 5.27 38.65-1.02 56.85-6.21 18.02-19.44 34.46-37.71 41.11-12.86 4.27-26.55 5.3-40.02 5.24-42.92-.07-85.83.11-128.75-.09.08-50.97-.03-101.95.06-152.92z"/>
    </g>
</svg>
