<svg xmlns="http://www.w3.org/2000/svg" width="925pt" height="1244" viewBox="0 0 925 933">
    <g fill="#9a9b9b">
        <path d="M17.38 0h215.19c10.1 7.25 12.6 23.35 4.23 32.78-4.7 5.35-12.36 4.73-18.8 4.64-58.6-.02-117.2-.05-175.79.01-.34 1.49-.47 3-.52 4.52.02 213.68.03 427.37-.01 641.05.03 1.34.13 2.68.3 4.02 4.99.6 10.01.19 15.02.28 4.54-.06 9.13.37 13.63-.41.18-195.96.01-391.93.08-587.89.18-4.88-.61-9.89.48-14.69 1.62-2.39 3.96-4.15 6.09-6.06 4.91-4.3 10.15-8.48 16.4-10.64 5.23-1.92 10.88-1.15 16.32-1.21 145.33.01 290.66 0 435.99 0 8.2-.32 16.49.67 24.64-.45.16-9.29.17-18.6-.01-27.89-.66-.11-1.97-.32-2.63-.43-40.68-.3-81.37.62-122.04-.54-5.71.29-9.46-5.08-11.17-9.88-2.95-9.35.24-19.76 6.26-27.21h153.68c9.41 7.03 15.04 18.07 16.82 29.54 2.44 12.07.95 24.41 1.36 36.59 13.48 1.09 27.19-1.58 40.53 1.43 8.72 1.78 17.19 6.36 22.13 13.96 3.01 4.19 3.17 9.54 3.58 14.48.75 13.61-.21 27.26.24 40.88 4.15.75 8.41.41 12.62.43 11.33-.22 22.66.59 34.01.22 2.86.11 6.37-.5 8.43 2.04 7.6 8.16 16.15 17.48 15.87 29.41-.59 28-.2 56.02-.31 84.02.1 21.67-.27 43.33.31 64.99-.11 19.34.22 38.68-.32 58.01.13 21.29-.1 42.58-.35 63.86-.06 1.83-2.16 2.54-3.55 3.19-7.58 2.75-15.72.73-23.36-.68-4.73-1.04-9.59-1.08-14.37-1.7-.15-81.55-.01-163.12-.06-244.67-.14-5.54.46-11.13-.41-16.62-105.96-.19-211.93-.03-317.89-.08-70.2.07-140.41-.15-210.6.1-.24 131.53-.03 263.07-.11 394.6.08 84.86-.13 169.74.11 254.6 83.86.25 167.73.03 251.6.1 7.27.15 14.63-.57 21.83.7 3.78.57 5.84 4.1 7.89 6.94a174.76 174.76 0 0 1 16.07 29.73c-13.25.53-26.53.24-39.79.33-92.34-.02-184.68.06-277.02-.04-2.32-.14-5.04.24-6.88-1.5-10.75-9.39-15.09-23.94-15.84-37.78-.79-9.04.29-18.11-.15-27.15-8.35-.67-16.74.43-25.11.08-7.37-.39-15.27.7-22.09-2.79-6.08-2.95-10.93-7.76-15.96-12.16-1.4-1.41-3.37-2.79-3.19-5.03-.25-16.91.14-33.85-.13-50.77-10.84-.95-21.73.55-32.6-.1-6.5-.44-13.42.31-19.44-2.71-8.43-4.03-14.05-11.96-18.59-19.83V21.55C5.77 14.35 11.34 6.98 17.38 0M131 108.6c-6.05.13-12.13-.33-18.16.24l-.24 3.16c-.01 202.67 0 405.34 0 608 .18 12.63-.36 25.28.25 37.89 8.25.11 16.54.41 24.77-.18-.06-186.58 0-373.17-.02-559.75-.25-10.8-.94-21.71.82-32.43 1.23-6.3 2.92-12.9 7.28-17.82 5.57-6.29 13.78-10.37 22.23-10.43 41.36.03 82.71.02 124.07.01 36.66.62 73.33.17 110 .31 33.33-.14 66.67.31 100-.31 30.67.03 61.34 0 92 .01 14.38-.17 28.79.33 43.15-.24.44-9.38.42-18.83.01-28.22-27.36-.74-54.78.28-82.15-.55-108.34.01-216.67.02-325.01-.01-32.99.63-66 .18-99 .32z"/>
        <path d="M283.16 0h50.47c1.68 5.93 3.78 11.85 4.06 18.06.28 5.95-1.87 12.25-6.53 16.11-3.94 3.19-9.25 3.57-14.12 3.57-8.7-.08-17.4.03-26.11-.03-4.09-.01-8.55-1.09-11.21-4.43-4.09-5.28-5.44-12.4-4.11-18.89C276.75 9 279.68 4.18 283.16 0zM362.1 0h40.69c8.65 5.7 12.35 17.6 8.4 27.17-1.96 4.68-5.9 9.22-11.25 9.71-11.7 1.51-23.56 1.26-35.31.57-2.6-.25-5.84-.2-7.19-2.9-6.89-10.76-3.71-25.52 4.66-34.55zM286.42 333.57c9.5-.71 19.05-.56 28.57-.58 39.35.97 78.71-.35 118.07.09 7.21-.04 15.3 2.21 19.06 8.92 6.6 9.94-2.6 24.42-14.1 24.26-47.66.78-95.34.41-143.01.05-5.36-.15-11.25.8-16.04-2.23-7.61-4.53-10.26-15.42-5.84-23.03 2.79-4.59 8.14-6.87 13.29-7.48zM283.82 479.78c8.98-1.46 18.12-1 27.18-1.08 17.66.56 35.34.2 53 .3 24.33-.01 48.66.01 72.99-.01 29-.85 58.01.2 87.01.01 14.35-.15 28.68.48 43.03.31-3.03 2.59-6.46 4.65-9.66 7.01-11.88 8.49-23 18.27-36.19 24.76-3.58 1.16-7.46.53-11.16.84-47.66.89-95.35.38-143.02.38-24.98-.08-49.97.1-74.95.09-7.13.19-15.05-2.04-18.93-8.51-6.37-8.84.42-22.29 10.7-24.1zM288.01 566.62c25-.2 50 .31 74.99-.34 37.62 0 75.24.21 112.86.11-3.82 9.78-9.23 18.91-14.54 27.95-2.22 4.52-7.85 4.91-12.26 5.39-18.68.83-37.37-.25-56.06-.03-20.67-.17-41.33.52-62 .3-13.69.23-27.36-.54-41.04-.26-5.75.33-11.47-2.14-15.38-6.32-5.06-5.39-5.21-14.61-.35-20.17 3.44-3.95 8.51-6.54 13.78-6.63zM277.82 652.84c5.01-3.58 11.44-2.2 17.18-2.53 28.99-.97 58-.66 87-.72 15.01-.02 30 .26 45 .72 4.63.26 9.39-.49 13.93.73-1.41 10.25-3.25 20.47-5.12 30.64-49.87 3.17-99.92 1.14-149.85 1.03-2.87.04-5.65-.98-7.96-2.65-8.72-6.07-9.39-21.28-.18-27.22z"/>
    </g>
    <g fill="#fff">
        <path d="M683.46 508.59c40.58-3.9 82.58 3.01 118.72 22.26 24.87 13.57 47.61 31.42 65.29 53.67 27.02 33.4 43.7 75.45 45.2 118.5.06 13.44.46 26.95-1.33 40.31-5.08 37.82-21.53 73.85-45.8 103.21-32.73 39.31-80.33 66.35-131.21 72.78-13.36 1.8-26.87 1.42-40.32 1.34-58.6-2.51-114.89-32.7-150.8-78.85-20.29-25.42-34-55.93-40.14-87.83-4.48-23.03-4.37-46.73-1.73-69.97 4.95-36.96 21.21-72.06 44.92-100.71 33.9-41.19 83.76-69.81 137.2-74.71m8.02 49.05c-16.88 1.72-33.51 6.01-49.01 12.94-30.95 13.72-57.22 37.7-73.6 67.34-21.63 38.36-25.86 85.96-11.44 127.55 9.79 28.19 27.47 53.68 50.9 72.21 20.99 16.72 46.27 28.04 72.79 32.27 28.28 4.61 57.82 1.45 84.38-9.36a164.964 164.964 0 0 0 38.61-22.47c31.2-24.5 52.54-61.25 58.21-100.53 4.2-28.08.59-57.26-10.33-83.46-11.87-28.68-32.42-53.73-58.34-70.81-29.75-20.05-66.5-29.05-102.17-25.68z"/>
        <path d="M745.5 626.44c7.76-14.56 26.94-21.36 42.18-15.15 13.43 4.69 22.6 18.62 22.3 32.74-.01 6.77-2.52 13.24-5.85 19.04-28.16 50.55-56.22 101.16-84.34 151.73-5.42 10.22-16.19 17.2-27.69 18.16-6.81.48-13.71-1.15-19.68-4.43-4.8-2.66-8.51-6.77-12.35-10.59-21.51-21.49-42.98-43.01-64.45-64.54-7.09-7.07-10.39-17.42-9.46-27.31 1.19-12.17 9.34-23.51 20.68-28.22 9.7-4.16 21.39-3.64 30.54 1.7 5.88 3.24 10.11 8.58 14.88 13.16 9.65 9.49 18.99 19.31 28.88 28.55.77-.64 1.39-1.41 1.85-2.3 20.81-37.53 41.64-75.04 62.51-112.54z"/>
    </g>
</svg>
