<svg xmlns="http://www.w3.org/2000/svg" width="401pt" height="407pt" viewBox="0 0 401 407">
    <g fill="#9a9b9b">
        <path d="M265.55 1.4c3.25-2.42 7.33 1.01 9.4 3.58 2.09 2.32.83 5.39-.12 7.89-2.52 6.13-3.26 12.84-6.1 18.85-2.32 4.89-4.15 10.16-7.64 14.38-3.5 4.18-11.16 2-12.4-3.17-.05-2.03.86-3.92 1.5-5.81 2.74-6.62 3.34-13.94 6.63-20.36 2.66-5.22 4.47-11.15 8.73-15.36zM126.39 3.35c3.37-.93 6.57 1.47 7.64 4.59 3.59 8.61 7.55 17.15 9.81 26.25.89 3.88 3.04 7.5 3.1 11.55-3.02 4.33-10.36 5.66-13.81 1.14-4.82-7.08-7.19-15.47-9.42-23.64-1.15-4.16-3.72-7.89-4.13-12.24.33-3.69 3.29-6.75 6.81-7.65zM195.39 19.39c3.84-.56 7.16 2.98 7.5 6.63.34 3.46.45 7.3-1.45 10.37-2.98 3.62-9.4 2.81-11.53-1.31-2.32-5.5-1.35-14.11 5.48-15.69zM315.45 54.46c5.22-.35 9.98 6.29 7.01 11.04-2.58 4.46-5.59 9.11-10.16 11.73-6.04 3.25-12.55-5.59-9-10.92 2.95-4.8 6.88-9.55 12.15-11.85zM79.36 60.32c3.38-1.29 6.54 1.28 8.79 3.52 2.59 2.93 5.22 6.25 5.82 10.23 0 3.9-3.67 8.08-7.75 7.62-4.74-1.28-8.07-5.38-10.66-9.33-2.82-4.1-.94-10.38 3.8-12.04zM375.45 91.54c5.85-3.47 13.14 4.36 10.42 10.16-1.31 2.69-4.1 4.14-6.57 5.56-9.64 4.92-18.18 12.04-28.49 15.58-4.93 1.5-9.33-3.89-8.54-8.51.82-2.87 3.38-4.74 5.76-6.3 9.02-5.7 18.33-10.92 27.42-16.49zM16.34 97.23c2.28-1.07 4.94-.75 7.2.22 7.97 3.22 14.41 9.16 22.11 12.89 3.68 2.1 8.07 4.11 9.77 8.28 1.39 3.43-.67 7.62-4.24 8.62-5.13 2-10.14-1.39-14.19-4.2-7.78-5.74-17.79-8.28-24.35-15.66-3.33-3.39.16-8.58 3.7-10.15zM373.38 163.53c3.92-.82 8.8-1.96 12.11 1.03 2.3 2.35 4.48 5.54 4.06 8.99-1.27 2.42-4.02 3.37-6.58 3.58-4.65.47-9.32 1.38-14 1.04-4.03-.15-7.78-4.9-5.58-8.69 2.24-3.37 6.25-4.93 9.99-5.95zM19.38 168.42c4.52-.76 9.31.59 13.08 3.14 2.96 2.04 3.06 6.15 2.61 9.37-.38 3.07-2.67 6.32-6.09 6.06-4.49-.4-8.73-2.25-12.73-4.24-2.77-1.34-5.5-4.29-4.44-7.59 1.2-3.28 4.19-5.89 7.57-6.74zM359.2 197.84c9.6.2 19.2.23 28.8.09 2.82.06 5.75-.2 8.47.68 1.87 1.05 3.12 2.85 4.53 4.41v22.4c-3.14 8.76-9.92 16.32-18.42 20.13-9.73 3-20.18-.32-30 2.05-6.67 2.94-8.75 10.74-10.92 17.05-1.41 5.54-4.61 10.33-6.74 15.57-1.31 3.27 1.18 6.31 3.2 8.64 7.23 7.81 16.25 14.93 19.3 25.59 2.9 9.92-1.2 20.55-8.21 27.72-6.45 6.55-12.69 13.42-20.09 18.93-6.83 5.48-16.54 5.66-24.63 3.38-9.65-4.43-15.68-13.76-23.92-20.1-2.43-1.93-5.72-2.67-8.66-1.5-7.47 2.66-14.88 5.56-22.1 8.85-4.26 1.8-8.41 5.04-8.95 9.96-1.19 9.1.62 18.64-2.72 27.43-2.68 6.91-7.72 13.75-15.21 15.73-10.12 2.58-20.63 1.2-30.93 1.23-6.76-.3-14.33.29-20.02-4.06-6.66-5.11-9.78-13.45-11.5-21.39-1.53-6.95.55-14.14-1.06-21.07-.82-3.73-4.21-6-7.41-7.57-6.4-3.1-13.06-5.65-19.58-8.49-3.05-1.25-6.61-2.69-9.76-.92-6.06 3.02-9.95 8.83-15.04 13.11-4.81 4.03-9.98 8.17-16.26 9.52-6.18 1.27-12.92.22-18.09-3.51-6.97-4.92-12.8-11.22-19.25-16.76-6.35-5.45-11.58-12.65-13.18-21-.91-4.36.74-8.69 2.53-12.59 2.49-5.14 5.43-10.35 10.21-13.69 4.38-3.23 9.28-6.61 10.96-12.08 1.83-5.57.03-11.47-2.69-16.41-2.54-4.7-4.59-9.63-6.41-14.64-1.2-3.08-2.96-6.75-6.62-7.29-8.89-1.36-18.05.89-26.85-1.27C10.95 242.4 3.19 232.29 0 221.44V207.4c1.44-3.29 4.16-6.29 8.03-6.25 11.55-.51 23.17-.78 34.72-.43 7.35 1.75 14.83-.02 22.26.19 27.65.15 55.31-.15 82.97.16.13 4.66.04 9.31.1 13.97.03 7.26 2.61 14.17 5.06 20.91 2.47 6.85 7.86 12.01 13.23 16.68 14.36 11.69 34.58 15.21 52.23 9.95 17.69-4.66 32.55-19.3 36.88-37.15 2.21-7.97 1.11-16.31 1.62-24.45 33.95-2.99 68.12-.75 102.1-3.14m-30.81 16.62c-14.15.41-28.29.97-42.45.95-4.11.13-9.29-.19-11.99 3.57-2.21 4.26-2.68 9.16-4.43 13.61-6.25 17.26-19.46 31.82-35.91 39.93-14.16 6.96-30.61 9.25-46.09 6.06-22.51-3.78-42.3-19.69-51.76-40.33-2.68-6.28-3.8-13.38-8.13-18.86-2.04-2.56-5.54-3.04-8.6-3.19-31.02.54-62.06.79-93.09.78-3.23.06-6.74.53-9.27 2.72-.65 1.09-.87 2.51.05 3.54 3.12 4.29 8.33 6.62 13.42 7.58 9.72 1.06 19.59-.57 29.28.81 5.6.87 7.85 6.79 9.46 11.49 2.56 8.87 7.54 16.75 10.46 25.49 2.13 6.19 7.63 12.13 5.34 19.05-2.17 4.55-6.35 7.69-9.91 11.11-4.44 4.28-10.13 7.22-13.91 12.19-3.62 4.84-2.36 11.64.7 16.43 5.28 8.45 12.3 16.38 21.58 20.44 3.39 1.65 7.26.64 10.23-1.38 9.7-6.1 16.44-15.67 25.15-22.95 1.68-1.24 3.77-2.96 5.96-1.92 4.39 1.69 8.31 4.37 12.57 6.34 5.48 2.5 10.39 6.3 16.32 7.74 5.4 1.32 10.9 2.59 15.89 5.12 3.18 1.4 5.52 4.38 6.01 7.83 1.17 8.44-.29 16.95-.01 25.42.27 6 2.84 12.37 8.2 15.53 4.12 2.26 9.01 1.79 13.54 1.89 5.64-.15 11.34.59 16.94-.35 5.19-.87 9-5.89 9.06-11.05.41-9.33-.06-18.67.31-27.99.1-3.55 1.52-7.17 4.55-9.21 8.55-5.84 19.7-5.23 28.46-10.6 5.49-3.29 11.43-5.75 16.99-8.92 2.33-1.45 5.37-2.49 7.67-.36 6.71 5.25 12.28 11.79 18.44 17.66 4.56 4.18 9.73 9.59 16.51 8.69 7.1-1.67 11.83-7.71 16.87-12.51 4.62-4.35 9.54-9.81 9.06-16.62-1.04-8.12-8.11-13.17-13.26-18.78-4.07-4.56-9.01-8.4-12.42-13.5-2.22-3.29-.1-7.07 1.87-9.87 4.08-5.72 6.16-12.49 9.32-18.69 2.26-4.51 4.15-9.27 4.65-14.32.41-3.85 1.55-7.84 4.5-10.52 2.95-3.1 7.55-2.9 11.49-2.99 7.85.18 15.72.26 23.57-.12 5.54-.21 10.74-3.79 13.07-8.8.86-1.77 1.15-4.31-.64-5.63-4.74-4.76-11.97-3.25-18.01-3.43-12.55-.22-25.07.69-37.61.92z"/>
    </g>
    <g fill="#fff">
        <path d="M85.94 99.94C115.42 68.13 158.56 49.21 202 49.96c22.4-.64 44.72 4.78 65.12 13.84 17.46 8.14 33.4 19.45 47.15 32.93 15.56 16.08 28.1 35.29 35.42 56.49 5.38 14.31 8.04 29.45 9.51 44.62-33.98 2.39-68.15.15-102.1 3.14-.51 8.14.59 16.48-1.62 24.45-4.33 17.85-19.19 32.49-36.88 37.15-17.65 5.26-37.87 1.74-52.23-9.95-5.37-4.67-10.76-9.83-13.23-16.68-2.45-6.74-5.03-13.65-5.06-20.91-.06-4.66.03-9.31-.1-13.97-27.66-.31-55.32-.01-82.97-.16-7.43-.21-14.91 1.56-22.26-.19 1.14-3.88 1.82-7.86 2.22-11.88 1.57-15.74 6-31.12 12.35-45.59 7.16-15.82 16.48-30.81 28.62-43.31m98.11 11.3c-.2 5.79-.08 11.58-.18 17.37-7.2.03-14.41-.19-21.61.14.04 3.38.04 6.76.04 10.13 3.7.22 7.49-.14 11.14.68 2.44.58 2.4 3.38 2.39 5.38-.05 15.38-.03 30.76-.01 46.14.01 2.25-.31 5.38-2.95 6.01-3.15.54-6.35.26-9.52.29-.1 3.51-.19 7.02-.2 10.54 6.92.31 13.85.11 20.78.16.01 5.89-.1 11.78.16 17.67 3.26.03 6.52.03 9.79 0 .09-5.89-.06-11.78.12-17.67 2.63-.01 5.26-.01 7.89 0 .02 5.89-.08 11.79.12 17.69 3.3.01 6.61.01 9.91 0 .22-5.87.13-11.75.15-17.62 8.03-.2 16.81-.48 23.46-5.61 7.51-5.53 9.53-15.95 7.84-24.67-1.48-6.9-7.78-11.03-13.86-13.58 2.46-2.12 5.09-4.19 6.73-7.05 3.71-6.24 3.23-15.15-2.2-20.28-5.84-5.63-14.16-7.29-21.92-8.29-.1-5.82.04-11.64-.21-17.45-3.29-.03-6.57 0-9.86.07-.26 5.76-.13 11.54-.19 17.31-2.59-.02-5.18-.01-7.76.02-.29-5.8-.17-11.6-.19-17.41-3.29-.01-6.58.01-9.86.03z"/>
        <path d="M193.95 139.82c7.1.04 14.96-1.05 21.22 3.04 6.89 5.09 2.94 17.69-5.35 18.74-5.23.55-10.51.15-15.76.19-.27-7.32-.15-14.65-.11-21.97zM194.07 172.32c8.55.58 17.98-1.74 25.74 2.91 6.95 4.36 4.39 15.94-2.58 18.99-7.29 3.25-15.53 1.93-23.27 2.01-.04-7.97-.19-15.94.11-23.91z"/>
    </g>
</svg>
