<svg xmlns="http://www.w3.org/2000/svg" width="480" height="280pt" viewBox="0 0 360 280">
    <g fill="#999a9a">
        <path d="M43.37 27.49c3.19-.5 6.43-.41 9.65-.39 41.34-.16 82.69 0 124.03-.1 3.05.08 6.27.23 8.97 1.82 3.2 1.46 3.11 6.73.13 8.39-3.6 2.32-8.12 1.37-12.16 1.52-40.99-.11-81.99.04-122.98-.07-3.28.17-7.33-.18-9.55 2.77-1.93 2.02-1.67 5-1.86 7.58-.02 53.66.01 107.33-.02 160.99-.04 3.48.66 7.6 4.01 9.43 3.85 1.89 8.3.82 12.38.51 7.95-1.32 16.02-.71 24.04-.81 20.67-.05 41.34.1 62.02-.05 3.86-.01 8.06.21 11.26 2.64 2.71 1.76 5.25 4.35 8.7 4.36 7.34.2 14.69.02 22.04.03 3.5.16 5.97-2.65 8.69-4.39 2.62-2.02 6.03-2.53 9.26-2.59 29.02-.01 58.04.02 87.06-.03 6.88-.04 13.82 2.59 20.64.7 4.18-1.79 4.54-6.85 4.59-10.78-.03-53.35.01-106.71-.02-160.06-.19-2.9-.34-6.34-2.79-8.34-2.25-2.15-5.61-1.75-8.47-1.96-14.68.07-29.36-.03-44.04.1-3.12-.06-6.94-.15-8.8-3.13-.35-2.47-.42-6.09 2.33-7.22 4.3-1.67 9-1.39 13.53-1.41 12.67.04 25.33.11 38 0 4.57.09 9.48.11 13.56 2.45 2.7 1.9 5.37 4.41 6.19 7.73.51 3.58.21 7.22.25 10.82-.07 52.67.05 105.33-.06 158 .08 3.87-.59 8.53 2.55 11.47 3.2 2.38 7.98 2.29 10.34 5.87 0 3.84-1.79 7.43-2.25 11.23-.79 3.39-.38 7.36-2.9 10.11-4.41 5.14-10.59 9.43-17.63 9.29-89.36.02-178.71 0-268.06.01-5.69-.12-11.78.83-17.02-1.94-5.67-2.61-9.64-8.26-10.56-14.39-.6-4.13-1.72-8.14-2.74-12.17-.58-1.56.3-3.28 1.63-4.13 3.38-2.21 7.93-1.47 11.19-3.88.64-1.74.56-3.62.63-5.43-.11-56.03.03-112.05-.07-168.07.18-3.72.75-7.74 3.21-10.7 2.87-3.14 6.89-5.18 11.1-5.78M28.71 234.96c.94 5.17 6.1 8.97 11.24 9.08 90.7-.03 181.41-.01 272.12-.01 6.22.19 11.99-5.58 11.25-11.9-3.94-2.71-8.75-2.58-13.31-2.31-35.01-.02-70.03.18-105.04-.01-5.15-.01-8.21 5.12-13.03 6.11-3.93.94-7.95.09-11.92.08-4.68-.08-9.36-.08-14.04-.01-4.56 0-9.24 1.21-13.7-.25-3.92-1.67-6.72-5.85-11.28-5.95-4.66-.33-9.33-.15-13.99-.19-30.68.45-61.37.34-92.04.14-2.98-.19-6.3 2.04-6.26 5.22z"/>
        <path d="M213.38 27.45c3.13-.46 6.36-.14 9.39.73 4.56.92 4.52 8.63.09 9.73-4 1.15-8.53 1.42-12.42-.24-2.17-.96-3.07-3.36-2.66-5.6.05-2.88 3.21-4.13 5.6-4.62zM45.49 48.99c-.23-2.07 1.39-4.24 3.58-4.11 68.63.2 137.29.1 205.93.12 16.02-.07 32.05.18 48.07-.19 1.99.03 4.98.41 5.34 2.86-.23 53.76.01 107.59-.13 161.37.46 4.17-6.07 6.5-8.42 3.13-1.34-2.11-1.57-4.7-1.64-7.14.08-47.68 0-95.37.05-143.05-.22-1.99.18-4.39-1.33-5.96-1.14-1.56-3.23-1.14-4.89-1.31-76.7.02-153.41-.02-230.11 0-2.81-.33-5.49 1.08-6.78 3.6-.44 2.2-.34 4.46-.38 6.7C54.75 109 54.73 153 54.72 197c-.14 5.13.93 10.6-1.34 15.42-2.1 1.22-4.52.56-6.73.09-.52-3.49-1.08-6.99-1.1-10.53-.03-50.99.1-101.99-.06-152.99z"/>
        <path d="M64.21 69.04c2.59.07 5.8-.19 7.4 2.33.38 1.49.38 3.04.43 4.57-.11 36.7.04 73.41-.11 110.11-.33 3.66 1.51 7.77 5.28 8.8 4.55.76 9.2.22 13.79.33 56.01-.09 112.03.03 168.05-.06 2.95.13 6.31.1 8.73 2.08 2.03 2.28 1.5 6.02-.27 8.32-1.49 1.31-3.58 1.31-5.44 1.42-64.38-.03-128.76-.11-193.14.05-1.83-.09-4.04-.04-5.17-1.77-2.38-3.23-1.65-7.48-1.77-11.22.09-38.68.05-77.37.02-116.05-.09-3.12.97-6.09 2.2-8.91zM92.29 70.24c15.21-.5 30.5.11 45.74-.26 4.3-.84 7.14 5.17 4.36 8.25-1.72 2.31-4.87 1.65-7.36 1.8-13.66-.32-27.32.01-40.98-.1-5.02.21-6.05-8.03-1.76-9.69z"/>
    </g>
    <path fill="#fff" d="M174.4 74.84c2.44-.26 4.89-.28 7.33-.12.05 2.92.13 5.83.32 8.74 7.92.37 16.42 2.44 21.86 8.62 4.13 4.47 5.43 10.76 5.08 16.68-5.43.09-10.88.19-16.31-.13-.48-3.17-.52-6.89-3.13-9.17-2.04-1.99-4.98-2.42-7.64-3.02-.1 7.01-.36 14.04.18 21.03 8.87 1.42 18.43 3.84 24.63 10.83 7.89 9.49 5.99 25.2-3.46 32.98-5.86 5.02-13.66 6.94-21.22 7.28-.21 3.22-.26 6.45-.29 9.68-2.45.13-4.91.1-7.35-.1.02-3.09.02-6.18.05-9.27-7.36-.97-15.13-2.36-20.87-7.47-6.28-5.19-8.97-13.57-8.67-21.52 5.88-.11 11.77-.23 17.64.12.42 3.83.51 8.15 3.33 11.12 2.13 2.44 5.43 3.11 8.42 3.89.28-7.72.07-15.44.15-23.17-7.61-2.06-16.01-3.64-21.64-9.66-8.87-9.49-6.47-26.99 4.83-33.58 5-3.37 11.07-4.19 16.82-5.45-.04-2.77-.04-5.54-.06-8.31m-7.24 24.31c-3.17 2.61-3.89 7.44-2.33 11.11 1.8 3.52 5.95 4.6 9.48 5.5.19-6.42.24-12.84-.04-19.26-2.45.57-5.14.92-7.11 2.65m14.74 34.25c-.14 7.26-.2 14.52.04 21.78 2.85-.6 5.9-1.08 8.2-3.02 4.06-3.04 5.23-9.4 2.32-13.6-2.47-3.32-6.72-4.35-10.56-5.16z"/>
</svg>
