<svg xmlns="http://www.w3.org/2000/svg" width="672" height="499pt" viewBox="0 0 504 499">
    <g fill="#fff">
        <path d="M112.46 44.32C148.62 20.9 191.95 8.78 235 10.09c40.25 1.04 80.1 13.75 113.52 36.19 38.83 25.82 68.78 64.69 83.79 108.84-7.75 2.77-15.78 4.54-23.64 6.91-11.66-32.03-31.82-60.92-58.06-82.69-28.38-23.74-63.78-39.02-100.57-43.11-37.19-4.32-75.6 2.73-108.82 20-22.21 11.41-42.06 27.35-58.15 46.44-3.92-2.21-7.28-5.24-10.98-7.76-3.07-2.15-6.26-4.21-8.79-7.01 14.1-16.87 30.66-31.69 49.16-43.58zM363.6 239.82c21.86-2.68 44.49 1.28 64.1 11.31 22.35 11.31 40.66 30.35 51.08 53.12 10.01 21.62 12.72 46.47 7.83 69.76-6.14 30.07-25.4 57.07-51.69 72.85-21.01 12.81-46.34 18.27-70.77 15.39-20.67-2.3-40.6-10.63-56.85-23.6-19.46-15.42-33.56-37.47-39.24-61.65-6.21-25.85-2.85-53.88 9.46-77.45 16.55-32.46 49.83-55.7 86.08-59.73m.04 23.99c-2.99.38-6 .71-8.89 1.59-15.11 4.63-29.54 12.33-40.48 23.9-10.75 10.47-17.94 24.05-22.5 38.23-3.66 14.22-3.45 29.31-.89 43.71 3.14 11.56 8.35 22.61 15.37 32.33 8.02 10.13 17.69 19.21 29.29 25.11 9.21 4.7 18.98 8.92 29.42 9.66 14.72 1.33 30.21 1.01 43.91-5.18 16.22-6.25 30.22-17.57 40.34-31.64 6.14-9.05 10.78-19.11 13.75-29.63 1.9-9.16 2.33-18.59 1.8-27.92-.48-6.07-.96-12.24-3.04-18.01-3.4-10.02-8.09-19.68-14.45-28.16-7.34-9.02-15.86-17.31-26.09-22.99-7.58-4.25-15.64-7.76-24.06-9.97a111.56 111.56 0 0 0-33.48-1.03z"/>
        <path d="M341.86 405.15c17.17-33.31 34.92-66.33 52.3-99.52 4.23.03 8.46-.13 12.69.14-17.14 33.26-34.71 66.3-52.01 99.48-4.33-.02-8.66.07-12.98-.1zM333.37 308.55c7.91-2.12 17.4-1.49 23.7 4.24 5.76 5.37 7.16 13.73 6.97 21.26-.17 7.34-1.86 15.37-7.54 20.5-6.28 5.56-15.63 6.04-23.4 3.87-6.61-1.87-11.54-7.61-13.25-14.15-1.9-7.26-1.93-15.13.28-22.33 1.88-6.28 6.85-11.62 13.24-13.39m5.05 10.02c-3.93 1.72-4.71 6.54-5.11 10.34-.37 5.41-.62 11.12 1.36 16.27 1.98 5.19 10.47 5.26 12.73.28 1.88-3.87 1.88-8.29 2.04-12.5-.05-3.89 0-8.05-1.93-11.54-1.7-3.16-5.91-4.09-9.09-2.85zM402.49 351.71c7.7-1.71 16.86-.8 22.63 5.11 5.38 5.52 6.6 13.68 6.41 21.09-.19 7.26-1.82 15.14-7.27 20.35-6.12 5.73-15.51 6.36-23.24 4.11-6.82-1.95-11.7-8.08-13.32-14.82-1.82-7.8-1.81-16.28 1.07-23.83 2.27-5.93 7.49-10.63 13.72-12.01m3.66 10.42c-3.59 1.75-4.32 6.14-4.78 9.71-.43 5.8-.78 11.95 1.4 17.45 1.92 4.76 9.64 4.93 11.94.43 2.07-3.88 2.04-8.43 2.22-12.7-.03-4.07.07-8.4-1.88-12.09-1.6-3.15-5.79-4.15-8.9-2.8z"/>
    </g>
    <g fill="#9a9b9b">
        <path d="M14.25 214.97c1.56-35.41 12.21-70.31 30.41-100.7 6.72 4.72 13.58 9.26 20.15 14.19-18.49 30.69-27.72 66.81-26.74 102.61.82 34.08 11.06 67.84 29.21 96.69 13.46 21.56 31.43 40.19 52.12 54.93-4.21 6.38-8.62 12.65-13.64 18.42-27.4-18.96-50.07-44.6-65.91-73.89-18.53-34.16-27.49-73.43-25.6-112.25zM181.62 135.77c2.62-2.2 5.83-3.9 9.33-3.92 5.5-.04 11.01-.04 16.51.24 1.05.49 2.11.96 3.19 1.41 3.06 3.85 2.17 8.95 2.36 13.51.04 48-.18 96.01-.09 144.01-.17 4.65.77 9.54-.87 14-1.6 4.41-6.92 5.24-11.02 5.17-5.37-.25-11.09.91-16.09-1.6-.7-.79-1.41-1.57-2.14-2.32-2.58-3.18-1.55-7.51-1.82-11.28.06-27.68-.19-55.36.13-83.04-.21-20.65-.29-41.3-.03-61.94.04-4.75-.39-9.55.54-14.24zM303.73 145.79c1.91-1.23 3.9-2.57 6.29-2.46 6.35-.11 12.72-.33 19.05.09 3.55-.14 5.49 3.46 5.78 6.55.6 7.66.25 15.35.24 23.03-.02 14.05.05 28.11.06 42.16-11.53 3.26-22.74 7.85-33.02 14.05-.51-23.74-.02-47.49-.2-71.23-.22-4.15.55-8.25 1.8-12.19zM416.75 192.08c7.68-2.67 15.76-3.93 23.78-5.12 2.7 13.9 3.65 28.12 3.42 42.27-8.15-1.86-16.26-4.24-24.01-7.39-.3-9.98-1.29-19.96-3.19-29.76zM243.55 189.47c3.73-2.35 8.22-1.59 12.4-1.76 5.76.14 11.78-.74 17.23 1.61.69 2.15 1.36 4.33 1.43 6.6.48 18.04.3 36.1-.03 54.15-10.86 10.56-20.03 22.86-26.91 36.36-1.96 3.88-4.03 7.75-5.1 11.99.28-28.47-.05-56.94-.15-85.41.56-7.84-.38-15.78 1.13-23.54zM122.51 207.61c7.89-3.06 16.56-1.46 24.8-1.63 1.51.69 3.06 1.28 4.62 1.85 1.38 4.26 1.04 8.8 1.17 13.22.06 23.3-.03 46.61.08 69.92-.04 4.54.12 9.14-.7 13.63-.81 2.89-3.78 4.17-6.16 5.54-5.77-.08-11.57.24-17.34-.19-2.07-.62-4.57-.85-6.03-2.62-2.55-2.36-2.36-6.1-2.46-9.28-.08-27.69-.12-55.37-.03-83.05.18-2.52.01-5.56 2.05-7.39zM136.5 419.08c2.73-7.3 8.14-13.1 12.32-19.57 21.67 10.12 45.29 15.92 69.14 17.37 11.41.26 22.85.35 34.2-.98 2.05 3.02 3.42 6.47 5.58 9.44 2.5 3.86 5.52 7.41 7.4 11.65-43.38 7.36-88.96 1.15-128.64-17.91z"/>
    </g>
</svg>
