<svg xmlns="http://www.w3.org/2000/svg" width="620" height="443pt" viewBox="0 0 465 443">
    <g fill="#828284">
        <path d="M151.17 38.25c17.4-6.49 35.28-12.74 53.96-13.83 16.62-1.01 33.31-.99 49.91.4 10.82.42 21.3 3.5 31.62 6.52 10.97 3.83 22.71 6.71 32.09 13.89 3.96 2.74 1.97 8.88-1.75 10.83-3.2 1.57-6.79.16-9.78-1.22-8.14-3.9-16.34-7.91-25.21-9.86-8.02-1.74-15.83-4.56-24.06-5.15-7.02-.59-13.86-2.5-20.91-2.86-10.73-.63-21.52.15-32.13 1.8-6.03.96-12.18 1.32-18.05 3.1-7.47 2.21-15.15 3.75-22.43 6.57-15.71 6.41-31.02 14.13-44.55 24.46-4.48 3.49-9.47 6.57-12.91 11.17-1.78 2.68.71 5.56 2.36 7.59 2.8 3.05 6.43 6.58 10.94 5.93 4.74-.28 7.96-4.16 11.53-6.8 9.61-7.56 20.43-13.42 31.59-18.34 7.08-3.6 14.77-5.64 22.41-7.65 12.7-3.87 26.04-5.28 39.26-5.59 8.63.88 17.31.81 25.93 1.76 10.7.47 20.99 3.76 31.17 6.81 20.97 6.93 39.65 19.44 56.14 33.92 5.15 3.84 8.95 9.05 13.15 13.83 14.8 17.36 25.88 37.9 32.15 59.85 3.38 10.17 3.77 21 6.69 31.29 1.09 2.95-.06 6.24-2.16 8.43-3.63 3.04-9.05.64-12.78 3.31-2.14 1.33-.66 4.14.61 5.57 4.77 5.24 10.23 9.81 15.06 14.99 2.86 2.96 5.81 6.37 10.03 7.28 2.6-.11 4.76-1.89 6.53-3.64 5.13-5.56 10.53-10.86 16.25-15.81 2.34-2.16 5.23-4.98 4.03-8.5-4.07-2.74-9.55.15-13.58-2.58-2.21-2.38-2.26-5.9-2.79-8.93-.57-6.42-2.03-12.69-3.08-19.03-1.2-10.39-4.64-20.33-7.91-30.21-7.89-20.55-19.02-39.94-33.56-56.51-2.48-3.16-6.18-5.9-6.7-10.13-.05-4.34 3.74-7.79 7.7-8.85 6.08 3.4 10.19 9.2 14.5 14.48a184.72 184.72 0 0 1 23.41 36.7c7.18 13.94 11.62 29.07 15.72 44.15 1.68 5.95 1.27 12.25 2.86 18.22.79 3.47 4.01 6.26 7.58 6.46 6.45.47 13.26-1.26 19.4 1.5 3.24 1.4 6.2 5.1 4.94 8.78-1.13 3.75-4.05 6.55-6.64 9.34-13.48 13.54-27.12 26.9-40.44 40.59-2.32 2.23-4.86 4.85-8.27 5.07-3.32-.45-5.67-3.17-8.02-5.32-11.89-12.12-23.95-24.07-36.05-35.98-4.41-3.99-8.79-8.34-11.21-13.87-1.91-3.34 1.62-6.61 4.28-8.21 6.22-3.75 13.81-.28 20.33-2.7 2.97-.99 2.76-4.32 2.48-6.87-1.57-13.33-6.28-26.07-12.09-38.09-10.63-21.7-26.85-40.45-46.16-54.88-4.88-3.46-9.96-6.63-14.66-10.34-4.58-3.66-10.15-5.66-15.67-7.41-8.29-2.59-16.33-6.39-25.12-6.93-7.12-.49-13.9-2.8-20.88-4.04-8.96-.66-17.97.38-26.81 1.83-6.81 1.4-13.83 1.54-20.56 3.33-21.63 5.8-41.7 16.77-58.7 31.32-4.72 3.69-10.35 8.89-16.84 6.53-6.44-2.72-11.11-8.23-16.08-12.96-4.81-4.79-10.57-10.29-10.21-17.66 1.01-6.75 6.62-11.36 11.43-15.63 15.12-12.98 32.4-23.39 50.71-31.22z"/>
        <path d="M337.46 58.42c4.08-1.33 7.61 2.24 10.64 4.47 3 2.73 7.45 5.32 7.4 9.9-.92 4.4-6.65 8.45-10.85 5.65-3.96-2.2-7.71-4.94-10.73-8.33-3.08-3.85-.53-9.69 3.54-11.69zM64.16 175.5c1.16-.2 2.15.7 3.1 1.23 3.84 2.77 6.95 6.38 10.32 9.67 12.14 12.21 24.35 24.33 36.46 36.56 3.06 3.43 7.71 7.52 5.51 12.63-3.18 4.02-8.74 4.88-13.57 4.78-4.08.2-9.06-1.06-12.15 2.42-4.01 2.9-1.14 7.98-.52 11.83 7.64 35.17 29.22 66.81 58.48 87.6 6.71 5.17 14.11 9.35 21.6 13.28 8.91 4.44 18.48 7.34 28.02 10.11 14.43 4.38 29.68 3.52 44.57 3.47 11.37.02 22.68-1.86 33.39-5.71 18.78-5.53 36.37-14.98 51.28-27.67 4.38-3.45 8.7-7.67 14.4-8.65 5.87-.82 10.63 3.58 14.63 7.24 4.77 4.93 10.06 9.44 14.03 15.07 3.12 4.2 3.16 10.29.36 14.66-2.88 4.71-7.42 8.01-11.59 11.49-24.1 19.55-52.79 33.57-83.23 39.79-10.06 1.67-19.93 5.11-30.24 4.71-10.92-.23-21.88.46-32.76-.41-19.48-3.8-39.46-6.81-57.58-15.31-37.08-15.82-68.89-43.52-90.12-77.76-9.22-15.47-17.08-31.95-21.62-49.44-2.35-7.52-3.96-15.24-4.85-23.07-.61-5.15-2.39-11.27-7.74-13.27-6.43-1.28-13.18.34-19.55-1.51-2.8-.79-5.79-2.51-6.67-5.46-.68-2.92 1.57-5.3 3.13-7.47 4.38-5.92 10.17-10.53 15.25-15.79 9.74-9.93 19.68-19.66 29.51-29.49 2.37-2.25 4.73-5.02 8.15-5.53m-2.74 21.82c-4.79 3.14-8.3 7.78-12.4 11.71-3.45 3.58-7.65 6.42-10.75 10.33-1.55 1.92-1.51 5.37 1.02 6.46 3.66 1.16 7.82-.26 11.36 1.45 2.83 1.85 2.9 5.65 3.22 8.66.2 5.92 1.23 11.75 2.66 17.49 1.26 5 1.61 10.18 2.89 15.18 7.34 26.6 20.14 51.83 38.29 72.7 4.05 4.93 9.03 8.95 13.31 13.66 4.34 4.71 9.44 8.62 14.43 12.61 18.33 14.56 39.5 25.64 62.09 31.84 11.14 1.97 22.08 5.45 33.47 5.66 11.02.12 22.04.19 33.05-.12 9.81-.42 19.29-3.11 28.89-4.96 8.52-1.81 16.57-5.2 24.63-8.42 16.29-6.6 31.22-16.14 45.06-26.9 2.59-2.34 5.87-4.87 6.25-8.58-1.95-4.91-6.28-8.71-10.9-11.12-2.24-1.38-4.67.27-6.62 1.39-4.77 3.15-8.98 7.09-13.81 10.17-7.44 4.78-15.04 9.37-23.2 12.83-9.75 3.98-19.47 8.4-29.96 10.04-12.62 2.7-25.42 5.34-38.4 4.46-14.11 1-27.84-2.78-41.58-5.32-9.2-1.96-17.78-5.96-26.41-9.57-23.54-11.19-44.29-28.18-60.13-48.87-12.72-16.49-21.73-35.64-27.3-55.67-1.53-5.82-1.98-11.85-3.3-17.71-.97-4.81-2.47-9.63-2.06-14.58.12-2.01 1.18-4.06 3.19-4.75 3.26-1.12 6.79-.44 10.15-.99 3-1.7 2.65-6.1.24-8.17-5.81-5.87-12.15-11.21-17.82-17.25-2.39-2.53-5.86-5.9-9.56-3.66z"/>
    </g>
    <g fill="#4961ae">
        <path d="M217.44 123.55c20.48-2.23 41.61 2.17 59.38 12.63 20.83 12.05 36.82 32.14 43.85 55.16 6.49 20.77 5.69 43.74-2.33 63.98-9.69 25.18-30.47 45.81-55.74 55.28-18.81 7.29-39.91 8.38-59.39 3.18-18.76-4.93-35.95-15.64-48.59-30.36-14.89-17.14-23.52-39.69-23.6-62.42-.37-21.95 7.22-43.92 20.86-61.1 15.81-20.26 40.02-33.6 65.56-36.35m5.69 34.62c-.19 3.55-.04 7.12-.31 10.67-5.72 1.03-11.65 1.48-16.98 3.98-7.2 2.97-13.45 8.91-15.53 16.56-2.5 8.84-1.7 19.45 4.97 26.32 7.12 7.49 17.68 9.8 27.43 11.7.53 10.12.45 20.32.02 30.44-4.87-.65-10.17-2.19-13.16-6.38-2.7-3.55-2.86-8.15-3.6-12.36-6.66-.49-13.36-.34-20.04-.11-.45 9.25 2.86 18.94 10.04 25.04 7.37 6.47 17.39 8.59 26.93 9.11.23 3.93-.02 7.87.18 11.81 2.54.17 5.1.14 7.63-.14.1-3.88-.23-7.78.29-11.64 5.35-.8 10.87-1.08 15.89-3.26 7.9-3.1 14.76-9.37 17.48-17.53 3.42-10.01 2.21-22.41-5.78-29.95-7.37-7.24-17.82-9.42-27.53-11.62-.71-8.99-.4-18.07-.14-27.08 3.94.16 7.99 1.67 10.47 4.86 2.28 2.84 2.24 6.66 2.97 10.07 6.17.16 12.34.07 18.52.05.83-8.6-2.61-17.75-9.69-22.93-6.3-5-14.46-6.09-22.19-6.96-.44-3.5-.23-7.03-.33-10.54-2.51-.25-5.03-.27-7.54-.11z"/>
        <path d="M212.77 186.74c2.95-2.05 6.56-2.98 10.13-2.97.19 8.42.22 16.86-.04 25.29-4.01-.76-8.1-1.98-11.32-4.6-5.37-4.43-4.42-13.93 1.23-17.72zM230.93 229.21c5.26 1.04 11.04 3.12 13.74 8.12 2.89 5.94.95 14.04-4.68 17.68-2.61 1.82-5.77 2.6-8.9 2.87-.76-9.52-.44-19.13-.16-28.67z"/>
    </g>
</svg>
