<svg xmlns="http://www.w3.org/2000/svg" width="683pt" height="617pt" viewBox="0 0 683 617">
    <g fill="#4961ae">
        <path d="M171.95 4.56c24.01-.4 48.02-.8 72.03-1.23 5.84-.14 11.54 1.37 17.19 2.68 34.31 8.33 66.39 25.55 92.38 49.44 25.48 23.32 45.13 52.97 56.55 85.57 12.05 34.15 14.96 71.43 8.64 107.07-5.22 29.58-16.92 57.99-34.02 82.68-22.36 32.42-53.92 58.43-90.11 74-33.06 14.35-69.85 19.84-105.68 16.08-32.04-3.29-63.27-14.12-90.48-31.36-30.23-19.07-55.48-45.93-72.63-77.29C9.3 282.16.44 248.01 0 213.74V203.7c.72-12.31 1.96-24.62 4.61-36.69C12.6 129 31.5 93.4 58.35 65.35c28.14-29.58 65.02-50.74 104.81-59.89 2.89-.6 5.84-.84 8.79-.9m25.8 63c-.01 8.81 0 17.62 0 26.43-19.07 1.13-38.55 4.81-55.17 14.65-13.04 7.57-23.39 19.99-27.4 34.63-3.83 14.18-3.93 29.87 2.04 43.49 5.41 12.41 15.86 21.95 27.53 28.45 16.28 9.07 34.65 13.58 52.93 16.5.15 16.17.03 32.34.07 48.5-8.46-.47-17.46-3.09-23.01-9.88-5.57-6.6-6.75-15.57-6.74-23.9-21.57.03-43.14-.03-64.7.03-.49 10.86 1.22 21.87 5.26 31.99 5.5 13.93 16.08 25.54 28.93 33.1 18.08 10.75 39.46 14.52 60.27 14.47-.02 9.66-.01 19.32-.01 28.98H217c0-9.67-.01-19.34 0-29.01 21.35-.05 43.33-4.65 61.22-16.76 13.92-9.31 24.6-23.69 28.38-40.11 3.23-14.43 2.57-30.03-3.05-43.79-5.24-12.83-16.31-22.38-28.64-28.17-18.26-8.63-38.35-12.06-57.9-16.54-.02-14.55-.02-29.11 0-43.66 6.8.92 14.06 2.93 18.59 8.45 4.77 5.68 5.49 13.46 5.44 20.59h58.47c.08-7.56-.23-15.19-2.09-22.55-3.23-13.9-11.95-26.32-23.82-34.21-16.57-11.17-36.93-14.95-56.59-15.51-.02-8.73-.01-17.45-.01-26.17h-19.25z"/>
        <path d="M176.07 143.08c5.81-5.35 14.09-6.42 21.66-6.77.04 13.31.01 26.61.01 39.92-7.16-2.05-14.9-3.34-20.94-8-7.72-5.86-7.61-18.69-.73-25.15zM217 236.5c7.49 1.47 15.38 3.04 21.56 7.8 7.92 6.22 8.15 18.95 2.44 26.71-5.63 7.22-15.36 9.08-23.99 9.53-.02-14.68-.01-29.36-.01-44.04z"/>
    </g>
    <g fill="#828284">
        <path d="M442.01 165.36c44.04-2.65 88.81 8.16 126.52 31.13 34.96 21.08 64.02 51.86 82.93 88.05 18.12 34.39 27 73.6 25.35 112.44-1.57 41.44-15.2 82.27-38.55 116.5-23.11 33.94-55.62 61.4-92.98 78.47-37.99 17.36-80.94 24.92-122.43 18.73-39.72-5.7-77.8-22.35-108.92-47.69-29.88-24.08-53.24-56.11-67.32-91.79-1.12-2.87-2.83-6.01-1.26-9.06 2.12-4.61 6.64-7.98 11.42-9.43 5.61-1.71 10.39 3.29 12.58 7.92 1.68 3.76 4.44 6.87 7.65 9.4 9.34-5.08 18-11.32 27.08-16.85 4.04 9.14 8.84 17.98 14.67 26.11-9.68 6.41-19.59 12.48-29.34 18.79 4.55 7.14 10.35 13.35 16.31 19.33 5.87 7.02 12.55 13.3 19.35 19.4 3.98 3.82 8.16 7.51 12.89 10.39 1.7.9 4.47 1.48 5.33-.78 5.28-8.72 10.35-17.57 15.61-26.3 8.19 5.71 16.82 10.84 25.96 14.89-5.52 9.59-11.29 19.03-16.81 28.63 1.54 1.22 3.07 2.5 4.89 3.29 14.41 6.42 29.44 11.59 45.05 14.13 5.93.82 12.34 3.85 18.15 1.08 1.37-10.84 1.01-21.88 1.72-32.8 9.98.84 20.02.87 30 .01-.46 4.23.16 8.44.39 12.66-.97 6.29-1.84 12.66-1.4 19.04 2.67 2.02 6.11 2.01 9.27 1.5 21.46-2.78 42.64-8.72 61.98-18.51-5.67-9.69-11.64-19.2-17.22-28.93 9.16-3.99 17.77-9.15 25.99-14.81 5.72 9.48 11.35 19.02 17.12 28.46 19.75-12.8 36.11-30.28 49.9-49.22-8.95-6.56-18.44-12.38-27.59-18.66 5.66-8.24 10.84-16.87 14.83-26.05 8.31 5.31 16.43 10.92 24.66 16.35 1.05.65 2.2 1.14 3.36 1.61 11.14-21.96 17.27-46.3 19.31-70.78-11.04-.02-22.08-.01-33.11-.01.84-9.98.84-20.02 0-30 11.03 0 22.07.01 33.11 0-1.87-23.92-8.08-47.48-18.32-69.18-9.74 5.26-19.46 10.54-29.21 15.76-4.12-9.13-9.33-17.72-14.94-26 9.73-5.25 19.46-10.5 29.18-15.76-9.94-15.29-22.49-28.8-36.35-40.6-4.19-3.32-8.2-6.93-12.81-9.67-1.51-.2-2.01 1.54-2.84 2.42-5.35 8.31-10.58 16.7-15.95 25-8.19-5.74-16.85-10.85-25.97-14.95 5.68-9.43 12.17-18.4 17.45-28.05l-.46-.93c-14.35-7.4-29.89-12.41-45.65-15.82-7.34-1.46-14.73-2.87-22.22-3.17-.68 5.93-1.03 11.93-.51 17.89.44 5.29.59 10.78-1.53 15.77-8.75-.79-17.56-.91-26.33-.35.01-19.67-.02-39.33.01-59z"/>
        <path d="M452.42 255.5c3.25-1.04 6.37 1.38 7.95 4.05 3.43 5.51 2.78 12.28 3.2 18.49.31 17.08 1.73 34.11 3.87 51.06.22 5.88 2.13 11.86.77 17.7.61 4.41 1.37 8.77 1.64 13.23 3.04 2.65 6.58 4.85 8.84 8.29 1.36 1.54 2.02 3.89 3.97 4.78 11.04 1.22 22.15 1.5 33.26 1.7 11.31 1.26 22.71.54 34.05 1.11 6.14.48 13.21.57 17.7 5.49 1.81 1.47 1.03 3.96.95 5.96-4.61 4.03-10.68 5.54-16.58 6.47-22.79 3.45-45.87 4.13-68.87 4.05-3.7 9.11-11.48 16.62-21.12 19.04-13.06 3.79-28.1-2.41-34.77-14.24-7.01-11.52-5.16-27.47 4.3-37.08 1.95-2.36 4.89-3.65 6.87-5.9 1.16-4.9.73-9.98 1.4-14.93 1.88-13.51 3.08-27.1 3.88-40.71 1.23-12.69.34-25.49 1.61-38.17.82-4.16 2.86-8.75 7.08-10.39z"/>
    </g>
</svg>
