<svg xmlns="http://www.w3.org/2000/svg" width="446pt" height="466pt" viewBox="0 0 446 466">
    <g fill="#9a9b9b">
        <path d="M273.41 2.67c8.11-1.86 16.75-.97 24.12 2.98 10.99 5.55 20.64 15.58 22.54 28.13.82 4.5 1.52 9.79 5.71 12.5 6.36 4.8 15.11 1.18 21.72 5.32 4.39 2.24 7.53 6.6 8.29 11.47 1.02 6.26.55 12.62.67 18.93-.1 6.18-.05 13.16-4.45 18.04-4.64 4.77-11.39 7.11-17.97 6.99-35.01.26-70.03.01-105.04.08-5.83-.13-12.08.16-17.28-2.93-4.1-2.39-8.3-6.12-8.47-11.21-.51-10.87-.87-21.83.23-32.67 1.78-5.94 7.97-9.88 13.93-10.67 5.23-.63 11.31.16 15.51-3.72 5.3-6.57 5.13-15.63 9.31-22.78 3.22-5.5 7.47-10.6 13.07-13.79 5.61-3.19 11.73-5.56 18.11-6.67m.97 13.79c-8.66.63-15.42 7.17-19.87 14.12-2.24 3.91-4.22 9.14-1.41 13.28 2.34 4.2 7.42 5.33 11.86 5.4 8.34.13 16.69-.08 25.04.06 3.91-.04 8.06.19 11.69-1.55 2.98-2.22 5.41-5.91 4.77-9.77-.9-7.12-5.84-12.89-11.17-17.32-5.74-4.82-13.83-4.89-20.91-4.22zM136.04 70.11c4.76-2.47 9.7-4.95 15.06-5.73 4.49-.33 9.02-.41 13.5.03 1.47 4.04 1.2 8.42 1.19 12.64-.14 2.72-.12 5.68-1.63 8.05-7.52 3.79-17.08 1.56-23.9 7.12-4.85 4.19-9.82 8.64-12.6 14.54-.9 1.68-1.81 3.38-3.08 4.82-6.5.5-13.05.33-19.56.2 1.91-11.15 6.93-21.76 14.89-29.86 4.51-5 10.37-8.45 16.13-11.81z"/>
        <path d="M379.31 64.38c8.27-.65 17.14-.78 24.33 4.03 14.38 5.82 26.09 17.77 31.59 32.29 3.61 9.64 4.38 20.06 4.6 30.27-.05 71.34.07 142.69-.01 214.03-.11 22.96.51 45.96-1.25 68.89-.76 6.82-3.05 13.44-6.25 19.5-5.76 8.32-12.14 16.68-21.25 21.57-7.17 4.55-15.53 7.06-24.04 6.83-76.01.06-152.02.02-228.02.02-5.16.06-10.39-.16-15.36-1.66-18.24-6.26-33.97-21.85-37.62-41.13 5.35-.15 10.71.23 16.05-.38 4.47-.63 7.27 3.57 9.44 6.79 6.04 9.5 17.12 15.61 28.42 15.23 74.05.07 148.09 0 222.13.04 8.5.16 17.21-2.31 23.78-7.84 8.81-8.1 14.39-19.81 14.39-31.85-.05-92.01.03-184.02-.04-276.03-.13-13.61-7.24-27.21-19.1-34.15-6.26-3.8-14.03-2.45-20.58-5.41-2.75-1.3-2.16-4.87-2.39-7.36.15-4.55-.62-9.37 1.18-13.68z"/>
    </g>
    <g fill="#fff">
        <path d="M117.33 138.33c5.74-1.36 11.58.35 16.87 2.52 7.02 2.89 12.63 8.21 19.36 11.62 9.38 4.78 18.94 9.77 29.47 11.41 9.32 1.08 18.38 3.84 27.78 4.37 9.14.36 18.08 5.15 23.29 12.71 3.29 4.3 5.84 9.45 5.65 15-.17 13.69.8 27.66-2.88 41.02-1.65 10.2-4.14 20.21-6.56 30.25-1.83 9.27-5.68 17.91-9.46 26.51-5.33 14.33-13.64 27.31-22.36 39.78-17.07 22.33-38.89 40.9-63.38 54.65-8.22 3.7-17.81 3.69-26.32.95-5.32-2.01-9.98-5.33-15.03-7.87-7.76-3.91-14.59-9.32-21.71-14.25-10.3-7.95-20.03-16.74-28.2-26.9-6.21-7.32-11.28-15.5-16.39-23.6-2.6-3.99-4.22-8.49-6.12-12.82-2.24-5.4-5.33-10.46-6.89-16.13-3.46-14.4-8.39-28.51-10.12-43.28-1.91-12.33-1.78-24.84-1.72-37.27.08-6.38-.46-12.95 1.46-19.12 4.08-11.08 15.13-19.29 26.99-19.62 7.74.03 15.09-2.73 22.67-3.83 8.29-.94 16.35-3.35 23.95-6.76 7.43-3.34 14.91-6.74 21.62-11.43 5.42-3.78 11.6-6.42 18.03-7.91m-.84 26.2c-3.55 1.59-6.6 4.06-9.97 5.97-5.2 2.96-10.78 5.15-16.06 7.95-6.52 3.45-13.85 4.73-20.75 7.14-7.48 2.24-15.12 3.92-22.76 5.45-5.94.9-12.59.45-17.62 4.29-2.98 2.25-2.46 6.37-2.58 9.67.19 15.3-.53 30.92 3.59 45.82 1.55 6.52 1.9 13.31 4.05 19.7 1.58 4.93 3.15 9.87 5.31 14.59 2.89 6.43 5.22 13.18 9.18 19.07 3.77 5.57 6.81 11.64 11.19 16.79 13.37 16.77 30.07 30.92 49.09 40.88 4.26 2.14 8.72 5.51 13.74 4.41 4.97-1.73 9.09-5.14 13.57-7.79 10.55-6.45 19.66-14.9 28.35-23.62 8.73-9.1 16.61-19.03 23.09-29.85 2.19-3.83 4.21-7.75 6.54-11.5 3.41-5.48 5.1-11.77 7.5-17.71 2.61-6.35 4.98-12.86 6.21-19.63 1.11-5.34 1.16-10.87 2.84-16.09 3.28-10.38 2.69-21.41 3.9-32.12.4-4.41 1.25-9.98-2.71-13.12-6.77-4.2-15.11-2.65-22.54-4.55-11.43-2.05-22.39-5.93-33.35-9.67-8.53-3.84-17.02-7.93-24.86-13.05-4.24-3.11-9.81-5.45-14.95-3.03zM252.32 169.11c4.17-.78 8.46-.17 12.68-.29 31.01-.05 62.02.07 93.04-.02 4.35-.12 8.72 1.31 12.15 3.99 3.49 2.62 3.83 7.85 2.18 11.6-2.79 5-8.93 6.89-14.34 6.87-30.69-.01-61.38-.05-92.07-.08-4.43.08-9.11-1.82-11.26-5.88-2.05-3.87-4.16-7.9-4.8-12.26-.41-1.81 1.11-3.02 2.42-3.93z"/>
        <path d="M159.13 229.1c4.27-2.68 8.66-5.87 13.8-6.42 3.19-.5 4.67 3.66 2.81 5.91-6.07 9.4-13.76 17.61-21.09 26.01-13.75 14.92-27.26 30.09-41.72 44.33-4.03 3.67-8.37 7.74-13.95 8.64-6.65-.07-11.47-5.51-15.06-10.5-6.88-8.99-11.44-19.39-16.64-29.36-1.58-3.4-3.97-7.4-1.71-11.06 2.51-1.93 5.92-2.31 8.78-.94 8.76 3.69 14.51 11.94 22.93 16.21 3.53 1.71 6.72-1.31 9.38-3.25 6.27-5.08 12.41-10.31 18.93-15.07 10.66-8.86 22.26-16.47 33.54-24.5zM260.32 234.42c4.53-.59 9.12-.24 13.68-.3 24.67.01 49.33 0 74-.03 6.93-.01 14.27-.92 20.78 2.07 5.32 2.3 5.76 10.01 2.68 14.27-2.74 3.96-7.96 4.72-12.42 4.73-31.01-.02-62.03-.04-93.04.01-4.83-.05-9.97.5-14.41-1.81-2.19-4.27-.37-9.4 1.18-13.62 1.04-3.26 4.42-4.8 7.55-5.32zM245.34 296.44c37.23-.32 74.48.05 111.71-.16 4.33-.15 8.99.35 12.45 3.22 4.64 3.4 5.07 11.01 1.08 15.07-2.17 2.31-5.39 3.41-8.51 3.33-42.36-.02-84.73-.11-127.09.05-2.28.24-4.49-1.64-4.13-4.02.52-3.84 2.77-7.15 4.58-10.48 2-3.68 5.51-6.96 9.91-7.01zM200.57 360.61c4.8-2.32 10.28-1.56 15.43-1.65 45.33.01 90.67.03 136 0 4.88.03 9.97-.4 14.6 1.44 2.81 1.22 4.6 3.77 6.6 5.96.04 3.78.46 8.38-2.76 11.09-4.47 3.96-10.85 3.74-16.45 3.68-50.66-.05-101.33-.04-151.99 0-6.37-.11-12.76.5-19.1-.26-.31-4.65 3.68-7.43 6.69-10.23 3.7-3.3 6.83-7.27 10.98-10.03z"/>
    </g>
</svg>
