<svg xmlns="http://www.w3.org/2000/svg" width="173pt" height="122pt" viewBox="0 0 173 122">
    <g fill="#828284">
        <path d="M52.54 1.45c2.27-.89 4.97-.41 7.41-.59 1.97.24 4.74-.67 5.84 1.54 1.23 1.67.58 4.35-1.15 5.42-3.83.27-7.67.52-11.5.46-2.66-1.3-2.47-4.94-.6-6.83zM71.88 7.78C68.91 6.23 69.2.61 73.04.67c18.7-.31 37.4.67 56.11.43-2.96 2.05-5.42 4.69-8.08 7.09-3.29.63-6.77.29-10.12.55-13.02-.36-26.04-.84-39.07-.96z"/>
        <path d="M19.05 3.79c8.02-.73 15.99-2.07 24.04-2.46 2.83-.45 3.73 3.32 2.85 5.38-1.68 2.18-4.56 1.81-6.97 1.81-7.34-.32-14.56 1.24-21.84 1.91-.11 27.52.01 55.04-.07 82.55.01 1.86.21 3.71.48 5.54 41.97-.15 83.94.2 125.9-.17.02-3.01-.01-6.02-.13-9.02 2 .04 4.02.05 6.01.33.33 2.86.18 5.75.21 8.62 4.17-.15 8.2 2.85 9.34 6.85 1.14 4.51.38 10.2-4.05 12.67-6.14 1.59-12.54 1.59-18.84 1.79-13.97.52-27.96.4-41.93 1.01-9 .41-18.02.44-27.02.05-14.34-.66-28.7-.53-43.05-1.06-6.28-.2-12.65-.21-18.77-1.78-5.45-3.14-5.8-11.25-2.39-16 1.99-2.81 5.86-2.27 8.48-3.88.21-28.93-.01-57.87.11-86.8-.17-4.16 3.73-7.26 7.64-7.34M7.8 104.51c-.89 2.29-.76 4.77-.63 7.17 9.13 1.93 18.56 1.35 27.83 1.81 21.04-.44 42.05 2.1 63.07.45 12.65-.66 25.33-.22 37.99-.75 5.6-.25 11.29-.17 16.78-1.51.12-2.41.25-4.88-.65-7.17-21.77.07-43.54.01-65.3.02-.38 1.19-.77 2.37-1.18 3.55-3.81.01-7.61.01-11.42 0-.41-1.18-.8-2.36-1.18-3.55-21.77 0-43.54.05-65.31-.02z"/>
        <path d="M75.91 42.88c-1.29-2.06.72-4.67 3.02-4.35 9.3-.1 18.6 0 27.89-.03v6.05c-8.94-.04-17.89-.02-26.84.01-1.43-.04-3.48-.07-4.07-1.68zM75.91 58.12c.58-1.62 2.64-1.6 4.06-1.65 8.95.02 17.9.03 26.85.01v6.04c-9.23-.05-18.46.03-27.69.02-2.32.31-4.57-2.26-3.22-4.42zM75.94 78.91c-1.41-2.13.85-4.76 3.18-4.44 9.23-.05 18.47.03 27.71-.02-.01 2.02-.01 4.03-.01 6.05-8.95 0-17.9-.02-26.85.06-1.41-.04-3.43-.06-4.03-1.65z"/>
    </g>
    <g fill="#4961ae">
        <path d="M125.45 18.56c2.56-7.75 9.89-13.11 17.64-14.92 4.81-.93 9.19 1.93 13.23 4.12 5.84 4.15 9.59 11.05 9.69 18.25.03 4.3-.06 8.61.04 12.92 1.19.03 2.39.06 3.59.08a524 524 0 0 0 2.36 2.35v36.26c-.8.79-1.59 1.59-2.38 2.38h-50.25c-.79-.79-1.58-1.59-2.37-2.38V41.36c.79-.78 1.58-1.56 2.36-2.35 1.53-.02 3.06-.05 4.59-.06.46-6.79-1.02-13.88 1.5-20.39m8.25-1.75c-4.84 6.36-2.07 14.76-2.6 22.09 9.26.17 18.53.16 27.8 0-.53-7.35 2.25-15.78-2.64-22.15-2.74-3.3-6.75-6.17-11.25-5.94-4.53-.24-8.56 2.66-11.31 6zM44.01 30.53c.75 0 2.24.01 2.99.01v4.3c3.83.47 8.09 1.3 10.61 4.53 1.94 2.24 2.2 5.28 2.59 8.08-2.47.02-4.93.02-7.4.03-.18-3.36-2.33-6.23-5.76-6.72-.07 3.95-.04 7.9-.02 11.85 4.39 1.1 9.43 2.21 12.17 6.18 4.02 5.84 2.02 14.94-4.32 18.27-2.37 1.44-5.19 1.68-7.87 2.1V84h-3v-4.83c-3.89-.41-8.01-1.38-10.7-4.46-2.8-2.62-3.24-6.58-3.76-10.15 2.68-.01 5.37-.04 8.05-.05.53 2.24.46 4.96 2.39 6.58 1.17.87 2.66 1.16 3.98 1.72.07-4.36.03-8.71.06-13.07-4.26-1-8.99-2.38-11.46-6.32-2.63-4.62-1.94-11.11 1.96-14.82 2.55-2.42 6.13-3.08 9.47-3.63.01-1.48.01-2.96.02-4.44m-5.57 16.31c.04 3.08 3.09 4.33 5.5 5.28.08-3.73.09-7.46.01-11.19-2.93.43-5.99 2.6-5.51 5.91m8.59 13.36c-.04 4.2-.06 8.41.03 12.62 3.44-.43 6.79-3.13 6.24-6.92-.04-3.41-3.57-4.76-6.27-5.7z"/>
    </g>
</svg>
