<svg xmlns="http://www.w3.org/2000/svg" width="2000pt" height="532pt" viewBox="0 0 2000 532">
    <g fill="#253b80">
        <path d="M82.41 0h162.31c16.87.71 33.81 2.09 50.25 6.13 18.28 4.38 36.38 11.74 50.4 24.58 12.62 11.84 22.2 27.21 26.05 44.17 3.66 15.93 2.9 32.56.27 48.59-5.93-3.84-12.65-6.25-19.56-7.57-20.41-6.28-41.91-7.38-63.12-7.77-37.69 0-75.37.03-113.06-.04-4.8.07-9.89.96-13.68 4.15-3.99 3.07-6.45 7.8-7.15 12.75-8 50.1-15.78 100.23-23.78 150.33-.41 2.01-.43 4.1.24 6.07-1.05 2.45-1.93 4.99-2.4 7.62-6.49 41.38-13.05 82.74-19.56 124.11-.92 5.7-1.28 11.51-2.92 17.07a7.82 7.82 0 0 0-1.1 2.29c-30.84-.03-61.68-.01-92.52-.01-6.37.3-11.75-4.93-13.08-10.9v-3.91c1.17-5.86 1.95-11.79 2.92-17.68 20.11-127.34 40.16-254.7 60.32-382.03C64.64 8.5 73.01 1.03 82.41 0zM630.37 109.54c2.13-.68 4.4-.72 6.63-.75 29.02.02 58.03 0 87.05.01 22.41-.08 45.4-.79 66.96 6.36 15.48 4.84 30.24 13.9 39.18 27.73 10.46 15.77 12.64 35.52 11 53.98-2 20.09-6.77 40.16-16.05 58.19-7.54 14.66-18.52 27.62-32.15 36.95-16.53 11.38-36.28 17.41-56.1 19.61-15.88 2-31.9 1.01-47.85 1.25-5.49.21-11.33-.81-16.48 1.61-4.46 2.19-7.63 6.65-8.37 11.55-3.66 22.94-7.25 45.89-10.88 68.84-.92 5.5-1.13 11.81-5.61 15.81-3.56 3.63-8.8 4.75-13.72 4.33-16.69-.06-33.39.05-50.07-.05-5.47 0-9.81-5.72-8.55-11.01 14.73-93.63 29.55-187.26 44.31-280.89.54-6.09 4.79-11.71 10.7-13.52m57.16 68.55c-3.81 24.52-7.91 49-11.52 73.55 13.36-.27 26.77.51 40.09-.81 9.83-1.09 19.99-3.61 27.75-10.07 8.54-7.1 12.66-18.09 14.21-28.81 1.44-9.48 1.73-20.02-3.68-28.37-4.6-7.25-13.13-10.62-21.25-12.05-11.95-1.94-24.1-1.45-36.15-1.57-4.65-.2-8.98 3.49-9.45 8.13zM370.17 133.02c-.77-1.42-.62-3.19.77-4.16.49 1.43.36 3.05-.77 4.16zM909.56 211.39c18.94-6.29 39.39-6.8 58.97-3.69 11.36 1.88 22.85 5.5 31.84 12.96 4.2 3.41 7.35 7.88 10.2 12.44 1.63-5.32 1.57-11.02 3.08-16.37 1.33-3.85 5.4-6.18 9.39-5.98 16.97-.04 33.94-.02 50.91-.01 3.74-.23 7.56 1.65 9.27 5.07 1.7 3.14.66 6.76.18 10.08-8.87 56.03-17.7 112.07-26.56 168.11-.78 4.1-.89 8.41-2.62 12.26-2.47 5.39-8.28 8.9-14.18 8.73-15.69.01-31.38.02-47.07 0-5.23.29-9.91-4.74-9.23-9.94.6-5.09 1.66-10.11 2.31-15.19-10.96 11.25-24.78 19.57-39.61 24.63-17.4 5.93-36.25 6.8-54.3 3.72-15.45-2.66-30.46-9.46-41.54-20.73-15.98-15.94-24.2-38.45-25.23-60.75-1.37-34.85 11.73-70.25 36.12-95.29 13.27-13.72 29.9-24.18 48.07-30.05m36.99 51.36c-19.57 3.11-36.94 16.95-44.33 35.34-5.19 12.83-6.99 27.72-2.07 40.91 3.61 9.77 11.61 17.66 21.35 21.32 13.31 5.05 28.42 4.61 41.78-.06 14.42-5.05 26.54-16.13 32.92-30 6.03-12.92 8.04-28.22 3.26-41.86-3.5-10.14-11.46-18.64-21.41-22.65-9.9-4.16-21-4.71-31.5-3zM1110.64 217.49c1.1-4.09 5.18-6.94 9.39-6.73 16.96-.05 33.93-.03 50.9-.01 6.94-.33 13.61 4.49 15.49 11.17 10.45 34.37 20.45 68.9 31.09 103.21 23.38-34.47 46.78-68.93 70.21-103.38 2.14-3.13 4.11-6.6 7.45-8.63 2.9-1.92 6.43-2.44 9.85-2.39 16.64.01 33.28 0 49.91 0 2.99-.09 6.24.63 8.23 3.06 3.01 3.16 3.16 8.39.5 11.81-58.85 84.84-117.65 169.72-176.49 254.56-2.93 4.23-8.11 6.53-13.2 6.32-17.64-.05-35.28.04-52.91-.05-6.78-.1-10.99-8.85-6.91-14.25 18.25-26.09 36.98-51.87 55.1-78.05-19.16-55.47-37.9-111.09-56.92-166.61-1.05-3.22-2.73-6.59-1.69-10.03z"/>
    </g>
    <path fill="#222d65" d="M162.27 112.24c3.79-3.19 8.88-4.08 13.68-4.15 37.69.07 75.37.04 113.06.04 21.21.39 42.71 1.49 63.12 7.77 6.91 1.32 13.63 3.73 19.56 7.57-.19 1.07-.32 2.16-.38 3.25-.09.54-.28 1.61-.37 2.14-1.39.97-1.54 2.74-.77 4.16-4.1 21.36-11.08 42.35-21.8 61.34-12.87 22.91-32.13 42.26-55.39 54.59-23.31 12.55-49.63 18.58-75.88 20.56-22.69 1.53-45.45.41-68.16.95-7.23.24-13.74 4.81-17.36 10.93-.67-1.97-.65-4.06-.24-6.07 8-50.1 15.78-100.23 23.78-150.33.7-4.95 3.16-9.68 7.15-12.75z"/>
    <g fill="#179bd7">
        <path d="M1418.15 109.27c9.53-1.03 19.2-.21 28.79-.47 30.34.05 60.68-.11 91.02.09 20.16.69 40.9 4.11 58.46 14.57 12.45 7.32 22.3 18.98 27.15 32.61 6.4 17.53 5.7 36.76 2.52 54.89-3.52 20.41-10.27 40.67-22.46 57.61-10.47 14.68-25.14 26.23-41.71 33.26-19.79 8.46-41.53 11.28-62.91 11.03-10.66.02-21.33-.02-31.98.02-5.23-.13-10.58 2.21-13.49 6.65-2.47 3.36-2.75 7.63-3.41 11.61-3.94 24.9-7.83 49.81-11.82 74.7-.61 5.01-5.21 9.2-10.28 9.14-19.02.03-38.04.04-57.06 0-5.53.17-10.04-5.56-8.83-10.91 14.79-94 29.64-188 44.48-281.99.8-6.09 5.53-11.42 11.53-12.81m56.24 68.6c-3.95 24.53-7.7 49.08-11.71 73.59 4.09.3 8.21.07 12.32.14 13.03-.07 26.31.53 39.05-2.76 8.07-2.05 15.93-6.08 21.15-12.73 6.89-8.44 9.42-19.49 10.35-30.12.69-8.26-.23-17.27-5.5-24-4.98-6.45-13.13-9.29-20.89-10.59-11.63-1.76-23.43-1.32-35.14-1.45-4.64-.28-9.09 3.28-9.63 7.92zM1929.46 109.58c2.38-.99 5.03-.84 7.58-.86 15.64.07 31.28-.06 46.91.06 3.91-.07 7.67 2.58 8.88 6.3.88 2.59.18 5.31-.18 7.93-14.75 93.05-29.36 186.13-44.13 279.18-1.01 6.98-7.44 12.73-14.5 12.78-15.36.06-30.72.03-46.07.01-5.64.29-10.33-5.54-9.03-11 15.01-95.67 30.07-191.34 45.14-287.01.36-3.2 2.44-6.09 5.4-7.39zM371.31 126.72c.36-.96.7-1.94 1.06-2.91 10.73 6.01 20.5 14.08 27.08 24.58 11.25 17.17 14.09 38.44 12.75 58.56-1.43 19.92-5.82 39.66-13 58.3-10.04 26.29-28.07 50.03-52.53 64.39-25.96 15.67-56.71 21.16-86.66 21.69-6.12.12-12.26-.23-18.37.18-8.49.81-15.55 8.04-16.63 16.43-4.87 29.32-9.29 58.71-13.99 88.06-.96 5.63-1.57 11.33-3 16.87-2.15 7.82-9.88 13.64-17.99 13.59-26.32-.01-52.64.04-78.96-.02-6.42.21-11.99-6.03-11.14-12.37 2.06-14.66 4.63-29.24 6.77-43.88 1.64-5.56 2-11.37 2.92-17.07 6.51-41.37 13.07-82.73 19.56-124.11.47-2.63 1.35-5.17 2.4-7.62 3.62-6.12 10.13-10.69 17.36-10.93 22.71-.54 45.47.58 68.16-.95 26.25-1.98 52.57-8.01 75.88-20.56 23.26-12.33 42.52-31.68 55.39-54.59 10.72-18.99 17.7-39.98 21.8-61.34 1.13-1.11 1.26-2.73.77-4.16.09-.53.28-1.6.37-2.14zM1691.06 213.27c20.61-8.04 43.4-9.05 65.07-5.44 10.63 1.84 21.34 5.24 29.95 11.96 4.86 3.53 8.16 8.61 11.6 13.42.81-5.09 1.5-10.2 2.46-15.26.79-4.55 5.42-7.52 9.89-7.21 17-.01 34-.02 51 .01 6.46-.58 11.67 6.21 9.66 12.34-9.47 59.58-18.81 119.18-28.29 178.75-.9 6.67-6.57 12.35-13.31 13.02-15.7.34-31.42.02-47.13.16-3.77.37-7.93-.78-9.99-4.18-2.29-3.25-1.27-7.33-.66-10.93.54-3.38 1.07-6.76 1.64-10.13-20.09 20.58-49.34 31.5-77.98 30.05-18.11-.49-36.65-5.3-51.09-16.62-15.05-11.8-24.86-29.37-29.1-47.84-5.3-22.92-2.4-47.17 5.52-69.13 11.86-32.84 37.85-60.72 70.76-72.97m42.36 49.46c-13.71 2.26-26.49 9.55-35.33 20.26-10.06 12.16-15 28.33-13.85 44.03.84 11.52 6.59 22.91 16.38 29.34 11.76 7.63 26.68 8.91 40.21 6.38 16-2.84 30.64-12.72 39.03-26.67 8.26-13.74 11.69-31.04 6.78-46.55-3.36-10.72-11.64-19.77-22.11-23.89-9.79-4.05-20.75-4.56-31.11-2.9z"/>
    </g>
</svg>
