<svg xmlns="http://www.w3.org/2000/svg" viewBox="0 0 49.888 49.888">
    <path d="M47.075 24.88l1.057 1.17-1.17 1.057-1.058-1.17zM44.747 25.82l1.406 1.563-1.561 1.405-1.406-1.562zM49.89 25.276l-.78.703-.704-.78.78-.703zM44.878 22.28l-1.055-1.173 1.172-1.055 1.055 1.172zM48.887 22.955l-.778.703-.704-.779.779-.703zM4.468 26.203h-.053l-1.042-3.965h-.667l-.974 3.965h-.053L.84 22.238H0l1.214 5.314h.81l.989-3.741h.053l1.019 3.741h.81l1.215-5.314h-.877zM43.637 23.118l1.406 1.563-1.563 1.407-1.406-1.563zM42.362 23.426l-1.406-1.563 1.562-1.406 1.406 1.562zM46.07 22.405l1.057 1.17-1.169 1.056-1.057-1.171zM47.892 20.636l-.78.703-.703-.78.78-.703zM33.504 26.602h-.045l-.959-2.76h-.824l1.438 3.749c-.18.555-.494.959-1.004.959v.613c.861 0 1.318-.539 1.693-1.574l1.355-3.748h-.803l-.851 2.761zM8.029 23.716c-1.124 0-1.701.823-1.701 1.963 0 1.185.518 1.964 1.776 1.964.539 0 .989-.15 1.326-.347v-.567c-.412.245-.787.389-1.191.389-.771 0-1.139-.396-1.139-1.297h2.442v-.275c.001-1.225-.576-1.83-1.513-1.83zm-.914 1.602c.082-.748.435-1.101.892-1.101.405 0 .787.313.824 1.101H7.115zM47.987 29.475l-1.056-1.172 1.171-1.056 1.056 1.172zM29.927 23.716c-1.125 0-1.701.823-1.701 1.963 0 1.185.517 1.964 1.775 1.964.539 0 .987-.15 1.325-.347v-.567c-.411.245-.786.389-1.19.389-.771 0-1.14-.396-1.14-1.297h2.443v-.275c.002-1.225-.576-1.83-1.512-1.83zm-.916 1.602c.084-.748.437-1.101.894-1.101.403 0 .787.313.824 1.101h-1.718z"/>
    <path d="M44.523 29.979l-2.578-2.869.717-.631-1.805-2.021.721-.632-1.832-2.019 2.859-2.574.908.994 1.533-1.368.906.939.604-.541a6.539 6.539 0 0 0-3.286-.881c-3.617 0-6.568 2.95-6.568 6.568 0 3.617 2.951 6.567 6.568 6.567a6.516 6.516 0 0 0 3.237-.856c.315-.178.602-.371.864-.574l-1.321-1.51-1.527 1.408zM12.016 23.716c-.405 0-.787.157-1.013.277v-2.136l-.779.187v5.231c.45.239 1.064.367 1.462.367 1.087 0 1.761-.683 1.761-2.085 0-1.197-.502-1.841-1.431-1.841zm-.33 3.401c-.188 0-.449-.014-.689-.119v-2.451c.3-.165.518-.247.816-.247.502 0 .848.308.848 1.258 0 1.214-.42 1.559-.975 1.559zM26.293 23.714c-.862 0-1.574.352-1.911.554v3.282h.778v-2.967c.232-.135.615-.27.914-.27.385 0 .676.105.676.697v2.541h.779v-2.712c0-.771-.338-1.123-1.236-1.125zM16.897 26.427h-.038l-1.679-4.189h-.906v5.314h.674v-3.763h.067l1.529 3.763h.479l1.529-3.854h.067v3.854h.809v-5.314h-.929zM21.961 23.716c-.989 0-1.709.652-1.709 1.963 0 1.281.683 1.964 1.709 1.964 1.027 0 1.709-.683 1.709-1.964 0-1.312-.72-1.963-1.709-1.963zm0 3.401c-.532 0-.922-.41-.922-1.438 0-1.012.428-1.439.922-1.439.51 0 .922.427.922 1.439 0 1.027-.39 1.438-.922 1.438z"/>
</svg>
