<svg xmlns="http://www.w3.org/2000/svg" width="1428" height="487pt" viewBox="0 0 1071 487">
    <path fill="#d82819" d="M69.3 31.32c6.49-2.97 13.79-2.02 20.7-2.18 7.51.18 15.05-.43 22.55.22.62 3.85.65 7.75.64 11.65-.04 44.99-.05 89.99 0 134.99 0 2.58-.23 5.16-.6 7.72-5.4.52-10.85.49-16.25.02-1.14-11.53-.27-23.16-.47-34.74-.23-7.28.36-14.57-.18-21.83-2.67-.5-5.68-1.1-8.16.33-2.02 2.42-3.29 5.35-4.79 8.1-6.57 13.31-14.16 26.09-20.8 39.37-1.62 3-3.11 6.1-5.17 8.85-5.94.41-11.92.29-17.87 0 1.84-5.94 5.44-11.11 8.34-16.55 5.7-10.61 11.68-21.07 17.4-31.67 1.68-3.39 5.16-6.84 3.89-10.9-5.93-3.59-12.61-6.67-16.58-12.64-7.15-10.91-10.39-24.15-9.82-37.13.02-8.65 3.38-16.83 7.42-24.33 4.24-8.35 11.23-15.34 19.75-19.28m-2.44 22.45c-4.4 6.92-7.92 14.84-7.75 23.19-.49 10.13 2.78 20.68 9.86 28.08 4.98 5.02 12.37 5.5 19.02 5.98 2.61.24 5.25-.21 7.64-1.3.57-16.22.21-32.48.34-48.72-.05-5.23.31-10.48-.31-15.69-5-1.47-10.3-1.16-15.44-.86-5.77.41-10.37 4.67-13.36 9.32z"/>
    <g fill="#191512">
        <path d="M306.02 81.02c5.71-2.59 12.95-3.12 18.26.72 6.68 4.78 10.24 12.64 12.67 20.25 3.75 10.58 4.31 21.88 3.85 33-13.59.72-27.24-.07-40.85.21-.73 9.1-.19 18.47 2.52 27.24 2.04 6.74 8.07 12.78 15.48 12.63 7.48.78 14.29-2.6 20.83-5.69 1.23 2.7 2.21 5.52 2.76 8.44-6.59 6.02-15.74 8.68-24.5 9.21-8.15.38-16.91-2.32-22.09-8.93-8.6-10.28-11.05-24.05-11.9-37.03-.61-16.36 1.72-33.49 10.24-47.74 3.03-5.13 7.17-9.88 12.73-12.31m-1.89 20.14c-3 7.14-4.45 14.9-4.85 22.62 9.2.43 18.43.31 27.63.09.6-7.42-.34-14.99-2.68-22.05-1.67-4.45-5.13-9.38-10.35-9.51-4.79.39-7.89 4.85-9.75 8.85zM433.19 91.15c6.72-9.76 19.61-14.27 31.03-11.4 4.21 1.2 9.02 2.41 11.75 6.12a55.27 55.27 0 0 1-5.53 8.66c-6.42-1.87-13.57-4.35-19.99-1.04-9.25 4.56-12.28 15.43-14.17 24.76-2.42 14.87-2.21 31.3 6.02 44.47 4.78 7.83 14.71 10.95 23.46 9.75 4.43-.49 8.4-2.59 12.42-4.33.44 4.48 2.09 10.66-2.5 13.55-7.7 4.93-17.65 5.36-26.31 2.99-8.64-2.14-15.39-8.75-20.06-16.06-6.74-10.51-8.56-23.35-8.36-35.62.23-14.66 3.18-29.94 12.24-41.85zM135.25 83.21c4.78-.44 9.6-.45 14.37.09.42 13.53-.43 27.1.33 40.61 7.9.32 15.85.46 23.75-.09.78-13.55-.27-27.15.42-40.71 4.54-.32 9.1-.32 13.63.15.14 1.9.26 3.81.24 5.72-.22 31.61.13 63.24-.18 94.84-4.57.38-9.18.38-13.75.02-.48-14.89.36-29.81-.39-44.7-7.88-.59-15.83-.48-23.72-.1-.71 14.88.03 29.81-.31 44.7-4.78.48-9.62.47-14.41.07-.33-31.27.05-62.55-.18-93.82-.04-2.26.04-4.53.2-6.78zM219.43 83.29c7.16-.84 14.39-.24 21.57-.34 7.29.15 14.59-.41 21.87.13.47 28.93-.2 57.89.32 86.82 3.4.25 6.83.17 10.23.65.43 10.96.24 21.96.09 32.93-4.35.19-8.71.2-13.06.01-.59-7.11.36-14.27-.42-21.38-10.33-.53-20.69-.01-31.03-.2-4.69.01-9.39-.22-14.07.18-.81 7.12.21 14.28-.4 21.41-4.32.2-8.65.17-12.96-.15-1.07-5.05-.46-10.24-.55-15.35.11-5.84-.37-11.69.26-17.51 2.13-.23 4.25-.53 6.39-.78 2.97-4.64 4.26-10.08 5.84-15.3 6.78-23.07 5.58-47.36 5.92-71.12m12.82 12.8c-.09 17.27-.1 34.67-3.45 51.69-1.26 7.81-4.41 15.09-7.78 22.19 9.34.28 18.71.43 28.03-.02.51-4.64.28-9.3.29-13.95-.02-15.33-.01-30.67 0-46-.01-4.65.22-9.31-.29-13.93-5.58-.46-11.22-.49-16.8.02zM358.14 83.08c4.56-.38 9.16-.44 13.72.04 1.09 13.68-.24 27.44.5 41.13 1.1-.83 2.22-1.67 3.04-2.81 8.63-12.7 17.27-25.43 26.19-37.92 4.63-1.26 9.56-.54 14.3-.4-6.02 9.76-13 18.89-19.26 28.5-2.88 4.46-6.44 8.46-9.08 13.07-1.78 2.44.33 5.11 1.32 7.4 8.36 14.8 16.16 29.9 24.34 44.8.86 1.53 1.48 3.18 2.03 4.86-4.62.31-9.28.44-13.89-.06-6.92-11-12.5-22.79-19.1-33.98-2.49-3.8-3.59-8.93-7.14-11.78-1.49 2.47-2.68 5.19-2.82 8.11-.5 12.54.57 25.14-.47 37.66-4.54.42-9.11.41-13.65.08-.45-30.58.02-61.19-.22-91.78-.04-2.31.03-4.62.19-6.92zM190.09 254.14c7.79-4.94 17.44-7.22 26.59-5.74 11.26 2.2 19.42 11.58 24.52 21.3 5.17 8.81 8.35 18.62 10.57 28.56 3.96 15.47 4.16 31.6 3.9 47.47-2.21.22-4.43.34-6.65.31-17.34-.11-34.69-.16-52.03-.3-4.37-.04-8.75-.23-13.1.2-.39 15.87-.15 32.17 4.79 47.41 2.94 7.83 7.75 15.95 15.91 19.14 11.11 4.74 23.64 2.55 34.7-1.16 4.47-1.36 8.39-3.91 12.5-6.04 1.79 4.92 4.55 9.86 4.72 15.15-3.76 3.45-8.33 5.89-12.89 8.11-13.3 5.78-28.16 9.26-42.62 6.39-8.44-2-16.7-5.83-22.76-12.18-4.62-4.87-8.64-10.38-11.42-16.51-3.93-8.72-7.17-17.8-8.76-27.26-5.36-29.34-3.89-60.29 6.65-88.34 4.9-14.1 12.86-27.9 25.38-36.51m10.72 19.65c-6.24 4.94-9.35 12.66-12.11 19.89-3.29 10.47-5.29 21.42-5.68 32.4 5.65.56 11.32.19 16.98.26 10.67-.2 21.37.42 32.02-.25.65-9.05-.54-18.11-1.98-27.03-1.54-8.95-4.63-18.26-11.56-24.5-4.71-4.47-12.61-4.87-17.67-.77zM46.09 254.25c25.57-.18 51.16-.16 76.73-.02.52 51.87-.13 103.77.32 155.64 6.16.51 12.37-.32 18.52.4.39 12.9.03 25.82.14 38.73-.15 6.49.43 13.01-.31 19.48-7.64.44-15.34.44-22.98-.01-.85-12.53.25-25.14-.52-37.68-4.97-.62-9.99-.3-14.99-.34-20.34-.03-40.67.05-61-.05-1.96 0-3.92.18-5.86.41-.5 12.46.22 24.94-.28 37.4-7.25.56-14.58.53-21.83.08-2.03-1.81-1.18-4.88-1.45-7.28.36-16.94-.4-33.92.37-50.84 3.87-.27 7.77.02 11.62-.49 3.39-6.09 5.46-12.79 7.86-19.3 4.95-13.25 6.85-27.34 8.91-41.24 3.83-27.88 4.43-56.05 4.45-84.15-.04-3.58-.13-7.18.3-10.74m21.99 22.84c-.52 15.28.32 30.62-.93 45.89-.43 21.74-3.58 43.47-9.9 64.3-2.26 8.05-6.56 15.24-10.23 22.68 11.99.15 23.99-.02 35.98.04 5.21-.05 10.44.28 15.64-.25.16-44.17.05-88.36.05-132.53-10.18-.6-20.42-.41-30.61-.13zM351.28 254.3c7.48-.2 14.98-.11 22.45.15 2.6-.23 2.09 2.8 2.21 4.48-.2 57.63.11 115.27-.16 172.9-8.2.34-16.43.29-24.63.03-.44-26.56.22-53.14-.3-79.69-7.61-.42-15.23-.02-22.85-.15-6.54.13-13.1-.4-19.61.26-.17 25.23.03 50.48-.04 75.72-.07 1.28-.16 2.57-.29 3.86-8.04.28-16.12.27-24.17 0-.62-16.6-.06-33.24-.25-49.86-.02-40.34.04-80.68-.04-121.02.12-2.18-.2-4.63 1.32-6.41 7.7-.2 15.44-.43 23.11.33.66 6.01.19 12.07.29 18.1.09 17.91-.08 35.83.06 53.74 6.85.63 13.75.12 20.62.26 7.3-.12 14.6.28 21.89-.14.52-24.17-.34-48.39.39-72.56zM413.27 254.32c6.87-.34 13.77-.29 20.64-.07.78 7.22.18 14.5.35 21.75.19 14.16-.28 28.33.2 42.48 13.09-1.57 26.7-2.49 39.45 1.63 8.23 2.85 16.23 7.33 21.54 14.42 8.95 10.61 11.57 24.96 11.61 38.47.18 13.55-2.48 27.95-11.41 38.61-9.04 11.95-23.75 18.29-38.39 19.75-14.64 1.5-29.49.65-44-1.69-.63-15.54-.06-31.12-.25-46.67.01-32.33 0-64.67 0-97 .19-10.56-.38-21.14.26-31.68m21.3 87.22c-.6 4.46-.29 8.97-.31 13.46.13 17.89-.25 35.79.16 53.67 5.25 1.58 10.85 1.75 16.26 1.03 9.14-1.38 17.06-7.83 20.88-16.16 4.2-8.45 3.79-18.19 3.17-27.34-.86-9.91-5.73-20.61-15.39-24.63-7.86-3.08-16.82-2.43-24.77-.03zM527.19 254.25c29.21-.17 58.44-.16 87.65-.02.37 6.2.33 12.42.02 18.62-21.9.46-43.83-.19-65.72.28-.42 52.9.14 105.83-.27 158.74-7.24.27-14.5.27-21.73-.01-.33-46.28-.04-92.57-.14-138.86.15-12.92-.3-25.85.19-38.75zM626.04 254.29c8.12-.13 16.33-.63 24.42.25.47 28.81.05 57.64.18 86.46.16 7.1-.44 14.22.31 21.3 3.42-4.95 4.77-10.9 6.96-16.42 3.1-8.76 6.99-17.21 10.02-25.98 3.38-9.78 7.69-19.21 11.06-28.99 3.31-9.5 7.6-18.62 10.79-28.17.98-2.86 1.97-5.75 3.56-8.35 9.12-.5 18.3-.3 27.43-.1.57 15.22.05 30.47.23 45.71-.1 43.95.19 87.92-.14 131.86-9.16.21-18.36.38-27.51-.11-.12-29.91-.02-59.83-.11-89.75-.15-8.39.37-16.81-.36-25.18-4.26 10.53-6.69 21.72-10.91 32.27-4.32 10.45-7.63 21.29-12.22 31.63-3.81 8.99-6.83 18.3-10.79 27.23-3.49 7.76-5.79 16.01-9.41 23.7-7.84.73-15.77.38-23.63.2-.66-13.93-.05-27.9-.26-41.85.01-40 0-80 0-120 .06-5.24-.41-10.51.38-15.71z"/>
    </g>
    <path fill="#e67a17" d="M957.78 159.68c5.27-3.75 11.76-5.47 18.17-5.59 7.88 1.05 15.24 7.13 16.72 15.12.93 5.21 1.4 10.5 1.38 15.79-.06 38.33.01 76.67.01 115 .24 6.33.04 12.68-.93 18.95-.66 6.51-4.16 12.21-7.34 17.77-5.46 7.93-14.75 11.57-23.45 14.71-19.6 7.66-38.85 16.15-58.53 23.58-5.27 1.96-10.23 4.66-15.57 6.42-6.07 1.99-11.75 4.96-17.72 7.18-8.78 3.5-18.6 5.69-25.5 12.59.49 1.59.94 3.36 2.35 4.43 3.46.67 7.06.57 10.55.08 15.89-3.64 31.56-8.16 47.24-12.62 13.37-3.05 26.5-7.1 39.84-10.3 5.7-1 11.03-3.37 16.69-4.53 9.5-2.88 19.15-5.21 28.68-7.98 9.37-2.36 15.77-10.54 20.13-18.68 3.41-5.98 2.07-13.06 2.24-19.6.08-19 .07-38 .06-57 .32-7.52-.62-15.13.65-22.59 4.94-2.04 10.38-1.47 15.59-1.44 6.26.14 12.96 1.92 17.3 6.7 3.94 5.22 4.34 12.04 4.05 18.34-.09 46-.02 92.01-.03 138.01.22 11.01-9.03 22.03-20.38 22.1-10.99.34-21.99.1-32.98.18H833.99c-10.48.33-19.87-6.46-25.6-14.78-2.75-5.05-4.47-10.74-4.69-16.49 0-45.35.01-90.7-.01-136.04-.23-12.31 8.12-22.71 17.19-30.1 6.35-3.75 12.81-7.33 19.3-10.83 4.44-2.46 8.36-5.75 12.86-8.11 9.7-5.17 19.24-10.65 28.69-16.26 9.53-5 18.7-10.64 28.02-16.01 5.92-2.96 11.15-7.12 17.19-9.86 10.05-6.44 20.99-11.37 30.84-18.14m-24.31 79.98c-4.64 2.34-8.18 6.5-10.97 10.8-3.01 4.42-2.84 10.14-2.04 15.21 2.23 6.28 10.74 7.6 16.15 4.88 3.51-1.96 7.27-3.83 9.94-6.93 2.56-3.75 3.66-8.32 4.22-12.78.54-4.1-1.34-8.47-4.55-10.99-4.09-1.2-8.62-1.15-12.75-.19z"/>
</svg>
