<svg xmlns="http://www.w3.org/2000/svg" width="956" height="560pt" viewBox="0 0 717 560">
    <g fill="#fff">
        <path d="M363.58 1.38c1.71-.34 3.48-1.33 5.25-.67 44.64 11.98 89.3 23.93 133.97 35.84.03 58.48.01 116.95.02 175.43-.08 11.29.41 22.64-1.16 33.87-2.47 19.56-9.79 38.49-21.25 54.56-16.76 23.63-41.42 40.64-67.82 51.95-13.12 5.63-26.81 9.9-40.75 12.96-2.7.63-5.54 1.09-8.27.35-29.56-6.33-58.3-18.25-82.23-36.93-20.69-16.1-37.01-38.29-44.27-63.64-3.7-12.68-5.3-25.93-5.14-39.13.01-63.05.01-126.1.01-189.15 43.87-11.83 87.77-23.59 131.64-35.44m1.96 22c-37.35 10.02-74.7 20.01-112.04 30.05.03 57.52.1 115.04.06 172.55-.08 9.61.78 19.26 3.19 28.59 5.88 24.03 21.65 44.73 41.44 59.18 20.45 14.9 44.27 25.07 68.97 30.39 9.24-1.58 18.23-4.56 27.03-7.79 20.32-7.71 39.79-18.5 55.46-33.73 11.4-10.98 20.47-24.48 25.73-39.45 4.04-11.25 5.78-23.24 5.8-35.17.01-58.21.01-116.42 0-174.63-36.25-9.7-72.49-19.39-108.73-29.1-2.26-.51-4.59-1.7-6.91-.89z"/>
        <path d="M265.05 63.09c32.95-8.69 65.92-17.31 98.86-26 1.62-.35 3.31-1.03 4.98-.48 33.67 8.81 67.33 17.65 100.99 26.49-.01 21.54.01 43.08-.01 64.62-32.6-8.58-65.22-17.09-97.82-25.68-1.99-.42-4.05-1.45-6.11-.81-33.63 8.83-67.25 17.69-100.89 26.52.01-21.56.01-43.11 0-64.66z"/>
        <path d="M324.25 125.92c14.25-4.44 28.52-8.85 42.78-13.29 14.38 4.43 28.77 8.86 43.16 13.28.11 61.5-.01 123.01.12 184.52-13.73 8.03-28.15 14.93-43.17 20.18-14.95-5.16-29.15-12.23-42.88-20.02-.03-61.55 0-123.11-.01-184.67zM265.06 141.02c14.93-3.92 29.87-7.81 44.81-11.73.02 58.59 0 117.19.01 175.78-9.73-6.73-19.17-14.1-26.6-23.38-8.57-10.53-14.68-23.15-16.94-36.57-1.64-8.95-1.23-18.08-1.28-27.12v-76.98m7.33 5.65c-.02 27.41-.02 54.82-.01 82.23-.02 7.07.66 14.18 2.55 21.02 4.23 16.2 14.75 30.14 27.62 40.59.02-50.58.01-101.16 0-151.74-10.05 2.63-20.11 5.27-30.16 7.9zM426.05 129.3c14.92 3.89 29.85 7.78 44.76 11.69-.04 30.32.18 60.64.02 90.97-.16 16.83-5.82 33.54-16.03 46.93-7.76 10.53-18.03 18.81-28.74 26.16-.01-58.58.01-117.17-.01-175.75m7.33 9.48c0 50.57-.01 101.15 0 151.72 17.5-13.82 29.86-34.88 30.07-57.53.01-28.76.19-57.54-.04-86.3-10.01-2.65-20.02-5.27-30.03-7.89zM527.85 442.82c6.29-6.46 15.22-9.75 24.08-10.53 10.22-.87 20.73.73 30.02 5.16-1.03 4.16-2.47 8.2-3.82 12.26-8.65-4.19-18.5-6.3-28.05-4.6-4.86.93-9.56 3.49-12.38 7.65-4.45 6.34-3.31 15.85 2.44 21.03 4.75 4.32 10.84 6.68 16.71 9.05 8.81 3.48 17.9 7.63 24 15.16 6.04 7.39 7.04 17.74 4.94 26.78-2.02 8.4-8.02 15.55-15.7 19.4-10.11 5.11-21.92 5.76-32.98 4.23-6.7-1.15-13.56-2.76-19.34-6.49 1.09-4.26 2.22-8.51 3.69-12.66 9.6 5.24 20.67 8.57 31.68 7.11 6.2-.88 12.6-3.76 15.89-9.35 4.14-7.21 3.17-17.32-3.1-23.02-7.51-7.16-18.13-8.97-27-13.8-6.97-3.67-13.62-8.89-16.81-16.29-4.41-10.28-2.12-23.09 5.73-31.09zM289.08 435.39c16.27-4.62 34.21-4.14 50.01 2.06-.96 4.16-2.33 8.2-3.65 12.25-11.78-4.89-25.01-5.69-37.48-3.43-10.28 2.18-20.09 7.9-25.9 16.81-6.94 10.52-8.57 23.8-6.9 36.09 1.32 10.19 5.77 20.28 13.71 27.02 8.48 7.41 20.08 10.2 31.13 9.99 6.09-.23 12.29-.72 18.03-2.95-.04-11.37.11-22.74-.11-34.11-7.69.01-15.38 0-23.07 0-.07-3.89-.04-7.79-.04-11.68 12.58-.11 25.17-.07 37.75 0 0 18.28.02 36.56-.01 54.85-17.81 5.78-37.37 8.46-55.66 3.32-13.49-3.72-25.54-13.03-31.55-25.79-8.38-17.55-8.59-39.11.02-56.62 6.58-13.58 19.3-23.66 33.72-27.81zM.84 433.57c28.18-.01 56.36-.01 84.54-.01.03 4.21-.05 8.42-.08 12.63-11.56 0-23.12-.04-34.68.07 0 33.64.03 67.28-.01 100.92-5.04.08-10.07.07-15.11.07-.01-33.69.01-67.38-.01-101.06H.92c-.16-4.21-.12-8.42-.08-12.62zM122.32 504.01c-.01-23.48-.02-46.97 0-70.45h14.8c.09 20.49.07 40.97.07 61.46-.11 10.68.18 22.16 6.16 31.43 9.03 14.58 33.72 13.92 42.37-.72 4.69-7.68 5.84-16.93 5.72-25.76.03-22.13.08-44.26.06-66.39 5.02-.12 10.04-.12 15.06.08-.08 17.78-.07 35.57 0 53.36-.09 10.74.46 21.7-2.44 32.16-2.52 9.41-8.09 18.28-16.49 23.46-9.41 5.74-20.92 7.08-31.71 5.76-9.55-1.17-18.92-5.86-24.61-13.77-6.38-8.82-8.65-19.93-8.99-30.62zM389.4 496.04c.09-20.82-.01-41.64.06-62.46 5.03-.06 10.06-.05 15.1-.02.06 23.82-.1 47.63.1 71.44.45 9.2 2.71 19.12 9.58 25.73 6.62 6.44 16.86 7.47 25.44 5.1 6.38-1.71 11.63-6.44 14.58-12.28 3.86-7.55 4.52-16.23 4.49-24.57-.01-21.77.03-43.55-.06-65.32 5.04-.21 10.09-.19 15.13-.08-.03 22.15.03 44.31-.03 66.46-.16 11.21-1.88 22.95-8.34 32.4-5.06 7.52-13.06 12.94-21.92 14.9-10.49 2.54-21.87 2.13-31.86-2.16-8.58-3.82-15.13-11.52-18.27-20.3-3.49-9.17-3.96-19.13-4-28.84zM631.37 546.86c-.09-37.76-.14-75.53.02-113.29 4.89-.08 9.78-.04 14.67.02.01 15.74 0 31.48.01 47.23 18.3.08 36.61.08 54.92 0 .15-15.71.16-31.41 0-47.12 5.02-.29 10.04-.17 15.07-.13v113.3c-4.96.06-9.92.06-14.88 0 .05-17.6-.19-35.2.01-52.8-18.38-.23-36.76-.16-55.13-.06v52.79c-4.9.16-9.8.14-14.69.06z"/>
    </g>
</svg>
