<svg width="1048" height="1394" xmlns="http://www.w3.org/2000/svg">

 <g>
  <title>background</title>
  <rect fill="none" id="canvas_background" height="402" width="582" y="-1" x="-1"/>
 </g>
 <g>
  <title>Layer 1</title>
  <g id="#000000ff">
   <path id="svg_1" d="m516.2,13.18c3.94,-0.97 7.76,-2.54 11.82,-2.96c3.28,0.19 6.39,1.42 9.56,2.24c160.47,43.36 321.05,86.33 481.62,129.36c3.89,1.05 7.88,1.84 11.63,3.41c0.4,33.25 0.04,66.52 0.17,99.77c0.01,205.33 -0.01,410.67 -0.02,616c0.33,9.71 -1.09,19.34 -1.04,29.04c-2.63,43.19 -10.74,86.12 -24.9,127.05c-23.95,70.3 -66.65,133.55 -120.54,184.39c-53.12,50.41 -116.34,89.34 -183.14,118.89c-48.99,21.55 -100.2,37.95 -152.43,49.59c-10,1.79 -20.1,5.66 -30.37,3.45c-77.67,-16.07 -153.3,-42.94 -222.89,-81.12c-66.24,-36.56 -127.16,-84.23 -173.91,-144.07c-32.13,-41.13 -57.5,-87.68 -73.58,-137.38c-14.53,-44.13 -21.79,-90.48 -23.2,-136.85c0.05,-224.99 0.01,-449.99 0.02,-674.99c0.15,-17.58 -0.28,-35.17 0.18,-52.74c4.24,-1.82 8.8,-2.64 13.23,-3.89c159.23,-43.17 318.5,-86.22 477.79,-129.19m5.34,83.29c-75.69,20.38 -151.41,40.68 -227.11,61.02c-62.74,16.94 -125.57,33.61 -188.23,50.83c-0.53,5.21 -0.16,10.45 -0.22,15.68c0.03,209.67 0.02,419.33 -0.03,629c0.25,12.33 -0.58,24.71 0.78,36.99c2.68,39.4 11.56,78.37 26.19,115.04c19.11,48.49 49.71,91.87 86.32,128.72c25.45,24.97 53.53,47.22 83.57,66.43c68.02,43.26 144.01,73.46 222.48,91.51c2.27,0.43 4.59,0.03 6.84,-0.42c61.07,-14.19 120.53,-35.72 175.96,-65.11c62.27,-32.69 119.71,-76.22 163.15,-131.92c20.06,-25.83 36.98,-54.18 49.57,-84.39c16.8,-40.48 26.44,-83.89 28.55,-127.65c1.23,-11.69 0.41,-23.47 0.64,-35.2c-0.01,-195.33 0,-390.67 0,-586c-0.16,-17.56 0.32,-35.14 -0.21,-52.68c-10.44,-3.15 -21.06,-5.68 -31.57,-8.61c-129.53,-34.78 -259.02,-69.76 -388.62,-104.28c-2.73,-0.57 -5.44,0.44 -8.06,1.04z" fill="#f5f5f5"/>
   <path id="svg_2" d="m515.78,146.74c5.13,-1.08 10.34,-3.51 15.66,-2.24c121.35,32.06 242.76,63.96 364.12,95.98c4.43,1.22 8.99,2.03 13.26,3.79c0.42,38.23 0.05,76.49 0.18,114.73c-0.11,42.02 0.2,84.06 -0.16,126.08c-5.02,-0.42 -9.77,-2.16 -14.61,-3.37c-117.97,-30.97 -235.85,-62.28 -353.88,-93.03c-4.95,-1.16 -9.94,-3.49 -15.12,-2.45c-124.37,32.34 -248.53,65.49 -372.81,98.18c-1.41,0.31 -2.85,0.48 -4.27,0.68c-0.37,-21.35 -0.04,-42.73 -0.15,-64.09c0,-54.67 0,-109.34 0,-164c0.09,-4.46 -0.51,-8.99 0.53,-13.38c122.41,-32.31 244.83,-64.58 367.25,-96.88z" fill="#f5f5f5"/>
   <path id="svg_3" d="m515.09,432.09c4.95,-1.39 10.07,-4.27 15.3,-2.47c43.02,13.25 86,26.68 129.01,39.97c9.1,3 18.48,5.21 27.42,8.68c0.47,15.23 0.03,30.49 0.18,45.73c0,205.67 0,411.34 0,617c-0.19,8.56 0.36,17.14 -0.2,25.68c-6.27,4.34 -13.22,7.58 -19.79,11.41c-44.37,24.41 -90.31,46.2 -138.17,62.88c-3.65,1.08 -7.09,-1.35 -10.47,-2.35c-48.61,-17.61 -95.18,-40.44 -140.19,-65.78c-3.58,-2.07 -7.39,-3.78 -10.68,-6.32c-0.48,-23.49 -0.04,-47.02 -0.19,-70.52c0.11,-198.33 -0.18,-396.67 -0.3,-595c0.22,-7.51 -0.49,-15.05 0.32,-22.53c49.11,-15.89 98.54,-30.84 147.76,-46.38z" fill="#f5f5f5"/>
   <path id="svg_4" d="m304.22,493.25c3.5,-0.97 7,-1.99 10.63,-2.33c0.34,42.02 0.04,84.05 0.15,126.08c-0.01,171.67 -0.05,343.34 -0.03,515c-0.01,4.72 0.16,9.45 -0.15,14.17c-6.22,-3.18 -11.48,-7.86 -17.25,-11.74c-16.88,-12.24 -33.34,-25.12 -48.57,-39.39c-38.17,-35.56 -68.82,-79.84 -85.55,-129.45c-9.42,-27.55 -14.14,-56.55 -15.45,-85.59c0,-108 0,-216 0,-324c0.17,-7.21 -0.37,-14.45 0.23,-21.64c51.95,-13.86 104.01,-27.33 155.99,-41.11m-49.89,42.04c-24.86,6.48 -49.68,13.12 -74.56,19.53c-1.25,0.35 -2.44,0.89 -3.64,1.41c-0.35,4.58 -0.12,9.18 -0.13,13.77c-0.01,103.66 -0.04,207.33 -0.04,310.99c1.2,29.97 7.25,59.81 18.26,87.74c19.03,48.25 52.52,89.97 92.75,122.3c0.07,-88.01 0.02,-176.02 0.03,-264.03c-0.09,-100.02 0.18,-200.04 -0.13,-300.05c-10.95,2.31 -21.68,5.62 -32.54,8.34z" fill="#f5f5f5"/>
   <path id="svg_5" d="m745.15,490.92c5,0.48 9.77,2.17 14.62,3.39c38.8,10.2 77.59,20.45 116.4,30.58c11.85,3.22 23.84,5.95 35.61,9.42c0.56,13.87 0.04,27.79 0.22,41.69c0.01,101.33 -0.03,202.66 0.02,304c-1.52,38.78 -10.02,77.43 -26.22,112.77c-13.97,30.79 -33.43,58.96 -56.4,83.71c-20.82,23.04 -45.31,42.37 -70.43,60.48c-4.56,3.12 -8.75,6.84 -13.78,9.2c-0.34,-54.38 0.03,-108.77 -0.12,-163.16c-0.03,-131.67 -0.04,-263.33 -0.06,-395c0.1,-32.36 -0.21,-64.73 0.14,-97.08m27.98,36.03c-0.3,74.67 -0.04,149.37 -0.13,224.05c0.02,113.35 -0.05,226.71 0.03,340.06c2.33,-1.64 4.55,-3.43 6.69,-5.31c26.55,-23.02 50.3,-49.61 68.08,-80.03c19.87,-33.66 31.9,-71.82 35.35,-110.73c1.47,-11.27 0.71,-22.66 0.9,-33.99c0.45,-74 0.1,-148 -0.02,-222c-0.25,-27.6 0.54,-55.21 -0.21,-82.79c-4.76,-2 -9.87,-2.87 -14.81,-4.26c-21.59,-5.77 -43.21,-11.39 -64.82,-17.08c-10.38,-2.55 -20.6,-5.78 -31.06,-7.92z" fill="#f5f5f5"/>
  </g>
 </g>
</svg>